<?xml version="1.0" standalone="no"?>
<!DOCTYPE svg PUBLIC "-//W3C//DTD SVG 20010904//EN"
 "http://www.w3.org/TR/2001/REC-SVG-20010904/DTD/svg10.dtd">
<svg version="1.0" xmlns="http://www.w3.org/2000/svg"
 width="389.000000pt" height="66.000000pt" viewBox="0 0 389.000000 66.000000"
 preserveAspectRatio="xMidYMid meet">

<g transform="translate(0.000000,66.000000) scale(0.100000,-0.100000)"
fill="#000000" stroke="none">
<path d="M2 330 l-1 -330 1944 0 1943 0 0 330 0 330 -1943 0 -1943 0 0 -330z
m332 299 c-3 -5 -10 -7 -15 -3 -5 3 -7 10 -3 15 3 5 10 7 15 3 5 -3 7 -10 3
-15z m2630 0 c-3 -5 -10 -7 -15 -3 -5 3 -7 10 -3 15 3 5 10 7 15 3 5 -3 7 -10
3 -15z m850 0 c-3 -5 -10 -7 -15 -3 -5 3 -7 10 -3 15 3 5 10 7 15 3 5 -3 7
-10 3 -15z m-3460 -17 c3 -5 -1 -9 -9 -9 -8 0 -12 4 -9 9 3 4 7 8 9 8 2 0 6
-4 9 -8z m546 0 c-10 -5 -15 -22 -15 -52 0 -30 5 -47 15 -52 11 -6 11 -7 -4
-5 -16 2 -19 10 -18 55 0 28 1 54 1 57 1 3 9 5 19 4 14 0 14 -2 2 -7z m33 -52
c0 -28 -3 -53 -5 -56 -3 -3 -6 22 -6 56 0 34 3 59 6 56 2 -3 5 -28 5 -56z
m117 56 c0 -2 -7 -6 -15 -10 -8 -3 -15 -1 -15 4 0 6 7 10 15 10 8 0 15 -2 15
-4z m80 -6 c0 -5 -8 -10 -17 -10 -15 0 -16 2 -3 10 19 12 20 12 20 0z m17 -72
c-2 -18 -4 -6 -4 27 0 33 2 48 4 33 2 -15 2 -42 0 -60z m83 78 c0 -2 -7 -6
-15 -10 -8 -3 -15 -1 -15 4 0 6 7 10 15 10 8 0 15 -2 15 -4z m67 -36 c0 -21
-3 -38 -6 -36 -8 5 -5 76 2 76 2 0 4 -18 4 -40z m343 32 c-10 -5 -15 -22 -15
-52 0 -30 5 -47 15 -52 11 -6 11 -7 -4 -5 -16 2 -19 10 -18 55 0 28 1 54 1 57
1 3 9 5 19 4 14 0 14 -2 2 -7z m33 -52 c0 -28 -3 -53 -5 -56 -3 -3 -6 22 -6
56 0 34 3 59 6 56 2 -3 5 -28 5 -56z m147 56 c0 -2 -11 -6 -25 -8 -14 -3 -25
-1 -25 3 0 5 11 9 25 9 14 0 25 -2 25 -4z m60 0 c0 -2 -7 -6 -15 -10 -8 -3
-15 -1 -15 4 0 6 7 10 15 10 8 0 15 -2 15 -4z m67 -36 c0 -21 -3 -38 -6 -36
-8 5 -5 76 2 76 2 0 4 -18 4 -40z m107 0 c12 0 -14 -20 -26 -20 -5 0 -8 15 -7
33 0 30 1 31 11 10 6 -13 16 -23 22 -23z m30 28 c-3 -4 -11 -5 -19 -1 -21 7
-19 12 4 10 11 0 18 -5 15 -9z m106 3 c0 -6 -5 -13 -12 -17 -6 -4 -8 -3 -4 4
4 7 -6 12 -26 15 -33 4 -33 4 5 5 20 1 37 -2 37 -7z m190 1 c-10 -5 -15 -22
-15 -52 0 -30 5 -47 15 -52 11 -6 11 -7 -4 -5 -16 2 -19 10 -18 55 0 28 1 54
1 57 1 3 9 5 19 4 14 0 14 -2 2 -7z m33 -52 c0 -28 -3 -53 -5 -56 -3 -3 -6 22
-6 56 0 34 3 59 6 56 2 -3 5 -28 5 -56z m107 52 c-10 -5 -15 -22 -15 -52 0
-30 5 -47 15 -52 11 -6 11 -7 -4 -5 -16 2 -19 10 -18 55 0 28 1 54 1 57 1 3 9
5 19 4 14 0 14 -2 2 -7z m33 -52 c0 -28 -3 -53 -5 -56 -3 -3 -6 22 -6 56 0 34
3 59 6 56 2 -3 5 -28 5 -56z m187 56 c0 -2 -11 -6 -25 -8 -14 -3 -25 -1 -25 3
0 5 11 9 25 9 14 0 25 -2 25 -4z m54 -36 c12 0 -14 -20 -26 -20 -5 0 -8 15 -7
33 0 30 1 31 11 10 6 -13 16 -23 22 -23z m30 28 c-3 -4 -11 -5 -19 -1 -21 7
-19 12 4 10 11 0 18 -5 15 -9z m43 -20 c-3 -7 -5 -2 -5 12 0 14 2 19 5 13 2
-7 2 -19 0 -25z m47 24 c3 -5 -1 -9 -9 -9 -8 0 -12 4 -9 9 3 4 7 8 9 8 2 0 6
-4 9 -8z m70 0 c3 -5 -1 -9 -9 -9 -8 0 -12 4 -9 9 3 4 7 8 9 8 2 0 6 -4 9 -8z
m850 0 c3 -5 -1 -9 -9 -9 -8 0 -12 4 -9 9 3 4 7 8 9 8 2 0 6 -4 9 -8z m-424
-13 c0 8 3 12 6 8 4 -3 -6 -21 -22 -39 -15 -18 -25 -25 -21 -15 7 20 4 21 -26
7 -20 -9 -20 -9 -3 2 11 7 26 20 35 29 11 10 18 12 23 5 5 -7 8 -6 8 3z
m-2020 -38 c-25 -36 -39 -42 -18 -8 8 12 18 28 22 35 5 7 10 11 13 8 3 -3 -5
-19 -17 -35z m399 12 c2 -2 -3 -3 -11 -3 -9 0 -19 7 -22 16 -6 15 -4 15 11 3
10 -7 20 -15 22 -16z m811 -13 c-23 -33 -41 -32 -39 3 1 22 1 22 7 -1 7 -23 7
-23 25 8 11 17 21 29 24 26 3 -3 -5 -19 -17 -36z m109 13 c2 -2 -3 -3 -11 -3
-9 0 -19 7 -22 16 -6 15 -4 15 11 3 10 -7 20 -15 22 -16z m-1842 -25 c-3 -7
-5 -2 -5 12 0 14 2 19 5 13 2 -7 2 -19 0 -25z m80 0 c-3 -7 -5 -2 -5 12 0 14
2 19 5 13 2 -7 2 -19 0 -25z m410 10 c-3 -8 -6 -5 -6 6 -1 11 2 17 5 13 3 -3
4 -12 1 -19z m250 -10 c-3 -7 -5 -2 -5 12 0 14 2 19 5 13 2 -7 2 -19 0 -25z
m80 0 c-3 -7 -5 -2 -5 12 0 14 2 19 5 13 2 -7 2 -19 0 -25z m127 -7 c-1 -46
-11 -48 -11 -1 0 21 3 38 6 36 3 -2 6 -18 5 -35z m193 17 c-3 -8 -6 -5 -6 6
-1 11 2 17 5 13 3 -3 4 -12 1 -19z m155 15 c-6 -2 -9 -10 -6 -15 4 -7 2 -8 -5
-4 -13 9 -5 26 12 25 9 0 8 -2 -1 -6z m185 -25 c-3 -7 -5 -2 -5 12 0 14 2 19
5 13 2 -7 2 -19 0 -25z m80 0 c-3 -7 -5 -2 -5 12 0 14 2 19 5 13 2 -7 2 -19 0
-25z m60 0 c-3 -7 -5 -2 -5 12 0 14 2 19 5 13 2 -7 2 -19 0 -25z m247 -7 c-1
-46 -11 -48 -11 -1 0 21 3 38 6 36 3 -2 6 -18 5 -35z m-987 7 c-3 -8 -6 -5 -6
6 -1 11 2 17 5 13 3 -3 4 -12 1 -19z m915 -10 c-8 -8 -9 -4 -5 13 4 13 8 18
11 10 2 -7 -1 -18 -6 -23z m236 4 l-23 -25 23 6 c12 3 19 1 16 -4 -3 -5 -19
-8 -36 -7 l-30 2 24 20 c12 10 22 22 21 26 -1 4 5 7 13 7 10 0 8 -7 -8 -25z
m-1130 -11 c-1 -16 -5 -28 -9 -26 -6 5 0 55 7 55 3 0 3 -13 2 -29z m920 0 c-1
-16 -5 -28 -9 -26 -6 5 0 55 7 55 3 0 3 -13 2 -29z m-2418 9 c0 -5 -5 -10 -11
-10 -5 0 -7 5 -4 10 3 6 8 10 11 10 2 0 4 -4 4 -10z m1074 -6 c6 -15 4 -15
-11 -3 -10 7 -20 15 -22 16 -2 2 3 3 11 3 9 0 19 -7 22 -16z m490 0 c3 -8 2
-12 -4 -9 -6 3 -10 10 -10 16 0 14 7 11 14 -7z m160 0 c6 -15 4 -15 -11 -3
-10 7 -20 15 -22 16 -2 2 3 3 11 3 9 0 19 -7 22 -16z m1456 -5 c0 -6 -4 -7
-10 -4 -5 3 -10 11 -10 16 0 6 5 7 10 4 6 -3 10 -11 10 -16z m-2423 -21 c-3
-7 -5 -2 -5 12 0 14 2 19 5 13 2 -7 2 -19 0 -25z m180 0 c-3 -7 -5 -2 -5 12 0
14 2 19 5 13 2 -7 2 -19 0 -25z m650 0 c-3 -7 -5 -2 -5 12 0 14 2 19 5 13 2
-7 2 -19 0 -25z m187 -7 c-8 -9 -22 12 -17 26 6 15 7 14 13 -3 4 -10 6 -21 4
-23z m740 0 c-8 -9 -22 12 -17 26 6 15 7 14 13 -3 4 -10 6 -21 4 -23z m692 30
c-3 -5 1 -14 9 -21 16 -13 20 -30 8 -30 -11 0 -32 48 -25 55 8 8 14 6 8 -4z
m39 0 c-3 -5 -1 -12 5 -16 5 -3 10 -11 10 -17 0 -6 -8 -3 -19 8 -18 19 -19 34
0 34 6 0 8 -4 4 -9z m35 5 c0 -3 -4 -8 -10 -11 -5 -3 -10 -1 -10 4 0 6 5 11
10 11 6 0 10 -2 10 -4z m17 -18 c-3 -8 -6 -5 -6 6 -1 11 2 17 5 13 3 -3 4 -12
1 -19z m78 1 c8 -23 -8 -39 -35 -38 -8 0 -5 4 8 9 27 12 29 30 2 23 -14 -4
-20 0 -20 11 0 24 37 20 45 -5z m52 15 c-3 -4 -2 -15 3 -25 6 -11 6 -20 1 -24
-5 -3 -11 5 -13 17 -2 13 -9 22 -16 20 -8 -1 -11 2 -7 8 3 5 13 10 22 10 9 0
13 -3 10 -6z m28 -3 c-3 -5 -1 -12 5 -16 5 -3 10 -11 10 -18 0 -7 -7 -5 -16 5
-14 14 -13 38 2 38 3 0 3 -4 -1 -9z m45 -1 c0 -5 -7 -10 -15 -10 -8 0 -15 5
-15 10 0 6 7 10 15 10 8 0 15 -4 15 -10z m-436 -16 c3 -8 2 -12 -4 -9 -6 3
-10 10 -10 16 0 14 7 11 14 -7z m92 -27 c-2 -7 -5 -5 -5 5 -1 12 -6 15 -18 11
-16 -6 -16 -5 -4 11 13 16 15 16 23 1 5 -9 7 -21 4 -28z m-2351 24 c-9 -8 -36
-10 -30 -2 2 4 11 8 20 8 8 0 13 -3 10 -6z m180 0 c-9 -8 -36 -10 -30 -2 2 4
11 8 20 8 8 0 13 -3 10 -6z m75 -1 c0 -5 -12 -10 -27 -9 l-28 1 25 8 c14 4 26
8 28 9 1 1 2 -3 2 -9z m575 1 c-9 -8 -36 -10 -30 -2 2 4 11 8 20 8 8 0 13 -3
10 -6z m75 -1 c0 -5 -12 -10 -27 -9 l-28 1 25 8 c14 4 26 8 28 9 1 1 2 -3 2
-9z m110 4 c0 -8 -19 -13 -24 -6 -3 5 1 9 9 9 8 0 15 -2 15 -3z m740 0 c0 -8
-19 -13 -24 -6 -3 5 1 9 9 9 8 0 15 -2 15 -3z m749 -25 c-19 -11 -24 -3 -8 14
8 9 16 11 18 5 2 -6 -3 -14 -10 -19z m-3182 -11 c-3 -8 -6 -5 -6 6 -1 11 2 17
5 13 3 -3 4 -12 1 -19z m2630 0 c-3 -8 -6 -5 -6 6 -1 11 2 17 5 13 3 -3 4 -12
1 -19z m653 12 c0 -5 -5 -10 -11 -10 -5 0 -7 5 -4 10 3 6 8 10 11 10 2 0 4 -4
4 -10z m197 -12 c-3 -8 -6 -5 -6 6 -1 11 2 17 5 13 3 -3 4 -12 1 -19z m-3500
-20 c-3 -8 -6 -5 -6 6 -1 11 2 17 5 13 3 -3 4 -12 1 -19z m2630 0 c-3 -8 -6
-5 -6 6 -1 11 2 17 5 13 3 -3 4 -12 1 -19z m850 0 c-3 -8 -6 -5 -6 6 -1 11 2
17 5 13 3 -3 4 -12 1 -19z m-3100 -55 c-3 -10 -5 -4 -5 12 0 17 2 24 5 18 2
-7 2 -21 0 -30z m2420 0 c-3 -10 -5 -4 -5 12 0 17 2 24 5 18 2 -7 2 -21 0 -30z
m-2770 -10 c-3 -10 -5 -4 -5 12 0 17 2 24 5 18 2 -7 2 -21 0 -30z m2630 0 c-3
-10 -5 -4 -5 12 0 17 2 24 5 18 2 -7 2 -21 0 -30z m-2850 -5 c-3 -8 -6 -5 -6
6 -1 11 2 17 5 13 3 -3 4 -12 1 -19z m3163 13 c0 -11 -19 -25 -38 -27 -10 -2
-8 3 4 17 18 20 34 25 34 10z m44 -7 c3 -8 2 -12 -4 -9 -6 3 -10 10 -10 16 0
14 7 11 14 -7z m26 6 c0 -5 -2 -10 -4 -10 -3 0 -8 5 -11 10 -3 6 -1 10 4 10 6
0 11 -4 11 -10z m-3260 -54 c-6 -26 -8 -51 -5 -57 3 -5 -1 -6 -9 -3 -8 3 -13
11 -11 17 2 7 9 32 15 56 15 57 24 46 10 -13z m91 16 c-6 -2 -18 -17 -27 -33
-15 -30 -34 -31 -34 -1 0 12 2 14 8 4 6 -8 16 1 32 30 20 35 25 39 28 23 3
-10 -1 -21 -7 -23z m649 30 c-21 -10 -21 -94 0 -104 11 -6 11 -7 -4 -5 -16 2
-19 10 -18 55 0 28 1 54 1 57 1 3 9 5 19 4 14 0 14 -2 2 -7z m33 -52 c0 -28
-3 -53 -5 -56 -3 -3 -6 22 -6 56 0 34 3 59 6 56 2 -3 5 -28 5 -56z m107 50 c0
-5 -8 -10 -17 -10 -15 0 -16 2 -3 10 19 12 20 12 20 0z m17 -72 c-2 -18 -4 -6
-4 27 0 33 2 48 4 33 2 -15 2 -42 0 -60z m77 42 c12 0 -14 -20 -26 -20 -5 0
-8 15 -7 33 0 30 1 31 11 10 6 -13 16 -23 22 -23z m30 28 c-3 -4 -11 -5 -19
-1 -21 7 -19 12 4 10 11 0 18 -5 15 -9z m60 -28 c12 0 -14 -20 -26 -20 -5 0
-8 15 -7 33 0 30 1 31 11 10 6 -13 16 -23 22 -23z m30 28 c-3 -4 -11 -5 -19
-1 -21 7 -19 12 4 10 11 0 18 -5 15 -9z m66 8 c0 -2 -7 -6 -15 -10 -8 -3 -15
-1 -15 4 0 6 7 10 15 10 8 0 15 -2 15 -4z m80 -4 c-10 -5 -15 -22 -15 -52 0
-30 5 -47 15 -52 11 -6 11 -7 -4 -5 -16 2 -19 10 -18 55 0 28 1 54 1 57 1 3 9
5 19 4 14 0 14 -2 2 -7z m33 -52 c0 -28 -3 -53 -5 -56 -3 -3 -6 22 -6 56 0 34
3 59 6 56 2 -3 5 -28 5 -56z m207 52 c-10 -5 -15 -22 -15 -52 0 -30 5 -47 15
-52 11 -6 11 -7 -4 -5 -16 2 -19 10 -18 55 0 28 1 54 1 57 1 3 9 5 19 4 14 0
14 -2 2 -7z m33 -52 c0 -28 -3 -53 -5 -56 -3 -3 -6 22 -6 56 0 34 3 59 6 56 2
-3 5 -28 5 -56z m157 51 c0 -6 -5 -13 -12 -17 -6 -4 -8 -3 -4 4 4 7 -6 12 -26
15 -33 4 -33 4 5 5 20 1 37 -2 37 -7z m44 -31 c12 0 -14 -20 -26 -20 -5 0 -8
15 -7 33 0 30 1 31 11 10 6 -13 16 -23 22 -23z m30 28 c-3 -4 -11 -5 -19 -1
-21 7 -19 12 4 10 11 0 18 -5 15 -9z m106 3 c0 -6 -5 -13 -12 -17 -6 -4 -8 -3
-4 4 4 7 -6 12 -26 15 -33 4 -33 4 5 5 20 1 37 -2 37 -7z m27 -31 c0 -21 -3
-38 -6 -36 -8 5 -5 76 2 76 2 0 4 -18 4 -40z m143 36 c0 -2 -11 -6 -25 -8 -14
-3 -25 -1 -25 3 0 5 11 9 25 9 14 0 25 -2 25 -4z m200 -4 c-10 -5 -15 -22 -15
-52 0 -30 5 -47 15 -52 11 -6 11 -7 -4 -5 -16 2 -19 10 -18 55 0 28 1 54 1 57
1 3 9 5 19 4 14 0 14 -2 2 -7z m33 -52 c0 -28 -3 -53 -5 -56 -3 -3 -6 22 -6
56 0 34 3 59 6 56 2 -3 5 -28 5 -56z m107 52 c-10 -5 -15 -22 -15 -52 0 -30 5
-47 15 -52 11 -6 11 -7 -4 -5 -16 2 -19 10 -18 55 0 28 1 54 1 57 1 3 9 5 19
4 14 0 14 -2 2 -7z m33 -52 c0 -28 -3 -53 -5 -56 -3 -3 -6 22 -6 56 0 34 3 59
6 56 2 -3 5 -28 5 -56z m47 44 c0 -8 -5 -12 -10 -9 -6 4 -8 11 -5 16 9 14 15
11 15 -7z m46 -9 c2 -14 -24 -30 -34 -20 -3 3 0 5 6 5 7 0 12 10 12 22 0 22
12 18 16 -7z m94 21 c0 -2 -11 -6 -25 -8 -14 -3 -25 -1 -25 3 0 5 11 9 25 9
14 0 25 -2 25 -4z m100 -5 c0 -6 -5 -13 -12 -17 -6 -4 -8 -3 -4 4 4 7 -6 12
-26 15 -33 4 -33 4 5 5 20 1 37 -2 37 -7z m50 5 c0 -2 -7 -6 -15 -10 -8 -3
-15 -1 -15 4 0 6 7 10 15 10 8 0 15 -2 15 -4z m-2863 -108 c-2 -18 -4 -4 -4
32 0 36 2 50 4 33 2 -18 2 -48 0 -65z m750 0 c-2 -18 -4 -4 -4 32 0 36 2 50 4
33 2 -18 2 -48 0 -65z m1372 65 c2 -2 -3 -3 -11 -3 -9 0 -19 7 -22 16 -6 15
-4 15 11 3 10 -7 20 -15 22 -16z m560 0 c2 -2 -3 -3 -11 -3 -9 0 -19 7 -22 16
-6 15 -4 15 11 3 10 -7 20 -15 22 -16z m488 -65 c-2 -18 -4 -4 -4 32 0 36 2
50 4 33 2 -18 2 -48 0 -65z m-3020 50 c-3 -8 -6 -5 -6 6 -1 11 2 17 5 13 3 -3
4 -12 1 -19z m210 -40 c-2 -13 -4 -3 -4 22 0 25 2 35 4 23 2 -13 2 -33 0 -45z
m480 30 c-3 -7 -5 -2 -5 12 0 14 2 19 5 13 2 -7 2 -19 0 -25z m80 0 c-3 -7 -5
-2 -5 12 0 14 2 19 5 13 2 -7 2 -19 0 -25z m415 -10 c-6 -6 -7 0 -4 19 5 21 7
23 10 9 2 -10 0 -22 -6 -28z m85 10 c-3 -7 -5 -2 -5 12 0 14 2 19 5 13 2 -7 2
-19 0 -25z m160 0 c-3 -7 -5 -2 -5 12 0 14 2 19 5 13 2 -7 2 -19 0 -25z m80 0
c-3 -7 -5 -2 -5 12 0 14 2 19 5 13 2 -7 2 -19 0 -25z m115 25 c-6 -2 -9 -10
-6 -15 4 -7 2 -8 -5 -4 -13 9 -5 26 12 25 9 0 8 -2 -1 -6z m180 0 c-6 -2 -9
-10 -6 -15 4 -7 2 -8 -5 -4 -13 9 -5 26 12 25 9 0 8 -2 -1 -6z m128 -19 c0 -8
-4 -12 -10 -9 -5 3 -10 13 -10 21 0 8 5 12 10 9 6 -3 10 -13 10 -21z m64 -13
c-1 -46 -11 -48 -11 -1 0 21 3 38 6 36 3 -2 6 -18 5 -35z m173 7 c-3 -7 -5 -2
-5 12 0 14 2 19 5 13 2 -7 2 -19 0 -25z m80 0 c-3 -7 -5 -2 -5 12 0 14 2 19 5
13 2 -7 2 -19 0 -25z m60 0 c-3 -7 -5 -2 -5 12 0 14 2 19 5 13 2 -7 2 -19 0
-25z m87 -3 c5 -22 4 -26 -4 -15 -5 8 -10 24 -10 34 0 26 6 18 14 -19z m56 1
c0 -2 -10 -2 -22 -1 -12 1 -22 9 -24 18 -2 15 0 15 22 0 13 -8 24 -16 24 -17z
m104 -5 c-1 -46 -11 -48 -11 -1 0 21 3 38 6 36 3 -2 6 -18 5 -35z m78 32 c-6
-2 -9 -10 -6 -15 4 -7 2 -8 -5 -4 -13 9 -5 26 12 25 9 0 8 -2 -1 -6z m205 -55
c-2 -13 -4 -3 -4 22 0 25 2 35 4 23 2 -13 2 -33 0 -45z m850 0 c-2 -13 -4 -3
-4 22 0 25 2 35 4 23 2 -13 2 -33 0 -45z m-1205 20 c-8 -8 -9 -4 -5 13 4 13 8
18 11 10 2 -7 -1 -18 -6 -23z m-534 -7 c-1 -16 -5 -28 -9 -26 -6 5 0 55 7 55
3 0 3 -13 2 -29z m560 0 c-1 -16 -5 -28 -9 -26 -6 5 0 55 7 55 3 0 3 -13 2
-29z m-604 3 c6 -15 4 -15 -11 -3 -10 7 -20 15 -22 16 -2 2 3 3 11 3 9 0 19
-7 22 -16z m1290 -17 c-3 -9 -13 -17 -22 -17 -13 0 -13 2 3 13 11 9 15 19 10
28 -6 10 -5 11 4 3 6 -6 9 -18 5 -27z m76 12 c0 -6 -4 -7 -10 -4 -5 3 -10 11
-10 16 0 6 5 7 10 4 6 -3 10 -11 10 -16z m-2326 -28 c-8 -9 -22 12 -17 26 6
15 7 14 13 -3 4 -10 6 -21 4 -23z m90 0 c-8 -9 -22 12 -17 26 6 15 7 14 13 -3
4 -10 6 -21 4 -23z m83 7 c-3 -7 -5 -2 -5 12 0 14 2 19 5 13 2 -7 2 -19 0 -25z
m567 -7 c-8 -9 -22 12 -17 26 6 15 7 14 13 -3 4 -10 6 -21 4 -23z m1003 7 c-3
-7 -5 -2 -5 12 0 14 2 19 5 13 2 -7 2 -19 0 -25z m609 23 c-3 -5 1 -14 9 -21
16 -13 20 -30 8 -30 -11 0 -32 48 -25 55 8 8 14 6 8 -4z m39 0 c-3 -5 -1 -12
5 -16 5 -3 10 -11 10 -17 0 -6 -8 -3 -19 8 -18 19 -19 34 0 34 6 0 8 -4 4 -9z
m35 5 c0 -3 -4 -8 -10 -11 -5 -3 -10 -1 -10 4 0 6 5 11 10 11 6 0 10 -2 10 -4z
m17 -18 c-3 -8 -6 -5 -6 6 -1 11 2 17 5 13 3 -3 4 -12 1 -19z m78 1 c8 -23 -8
-39 -35 -38 -8 0 -5 4 8 9 27 12 29 30 2 23 -14 -4 -20 0 -20 11 0 24 37 20
45 -5z m52 15 c-3 -4 -2 -15 3 -25 6 -11 6 -20 1 -24 -5 -3 -11 5 -13 17 -2
13 -9 22 -16 20 -8 -1 -11 2 -7 8 3 5 13 10 22 10 9 0 13 -3 10 -6z m28 -3
c-3 -5 -1 -12 5 -16 5 -3 10 -11 10 -18 0 -7 -7 -5 -16 5 -14 14 -13 38 2 38
3 0 3 -4 -1 -9z m45 -1 c0 -5 -7 -10 -15 -10 -8 0 -15 5 -15 10 0 6 7 10 15
10 8 0 15 -4 15 -10z m-3506 -16 c3 -8 2 -12 -4 -9 -6 3 -10 10 -10 16 0 14 7
11 14 -7z m906 0 c0 -8 -19 -13 -24 -6 -3 5 1 9 9 9 8 0 15 -2 15 -3z m90 0
c0 -8 -19 -13 -24 -6 -3 5 1 9 9 9 8 0 15 -2 15 -3z m85 -3 c-9 -8 -36 -10
-30 -2 2 4 11 8 20 8 8 0 13 -3 10 -6z m565 3 c0 -8 -19 -13 -24 -6 -3 5 1 9
9 9 8 0 15 -2 15 -3z m160 -4 c0 -5 -12 -10 -27 -9 l-28 1 25 8 c14 4 26 8 28
9 1 1 2 -3 2 -9z m575 0 c-3 -5 -14 -10 -23 -10 -15 0 -15 2 -2 10 20 13 33
13 25 0z m270 1 c-9 -8 -36 -10 -30 -2 2 4 11 8 20 8 8 0 13 -3 10 -6z m664
-22 c-19 -11 -24 -3 -8 14 8 9 16 11 18 5 2 -6 -3 -14 -10 -19z m-152 -1 c-3
-8 -6 -5 -6 6 -1 11 2 17 5 13 3 -3 4 -12 1 -19z m-3020 -25 c-3 -10 -5 -4 -5
12 0 17 2 24 5 18 2 -7 2 -21 0 -30z m2630 0 c-3 -10 -5 -4 -5 12 0 17 2 24 5
18 2 -7 2 -21 0 -30z m643 27 c0 -5 -5 -10 -11 -10 -5 0 -7 5 -4 10 3 6 8 10
11 10 2 0 4 -4 4 -10z m-2923 -42 c-3 -7 -5 -2 -5 12 0 14 2 19 5 13 2 -7 2
-19 0 -25z m2420 0 c-3 -7 -5 -2 -5 12 0 14 2 19 5 13 2 -7 2 -19 0 -25z
m-2800 -40 c-3 -8 -6 -5 -6 6 -1 11 2 17 5 13 3 -3 4 -12 1 -19z m2630 0 c-3
-8 -6 -5 -6 6 -1 11 2 17 5 13 3 -3 4 -12 1 -19z m850 0 c-3 -8 -6 -5 -6 6 -1
11 2 17 5 13 3 -3 4 -12 1 -19z m-3820 -10 c-3 -8 -6 -5 -6 6 -1 11 2 17 5 13
3 -3 4 -12 1 -19z m750 0 c-3 -8 -6 -5 -6 6 -1 11 2 17 5 13 3 -3 4 -12 1 -19z
m2420 0 c-3 -8 -6 -5 -6 6 -1 11 2 17 5 13 3 -3 4 -12 1 -19z m-2937 4 c0 -5
-7 -9 -15 -9 -8 0 -15 4 -15 9 0 4 7 8 15 8 8 0 15 -4 15 -8z m3144 0 c3 -5
-1 -9 -9 -9 -8 0 -12 4 -9 9 3 4 7 8 9 8 2 0 6 -4 9 -8z m-2514 -10 c-10 -5
-15 -22 -15 -52 0 -30 5 -47 15 -52 11 -6 11 -7 -4 -5 -16 2 -19 10 -18 55 0
28 1 54 1 57 1 3 9 5 19 4 14 0 14 -2 2 -7z m33 -52 c0 -28 -3 -53 -5 -56 -3
-3 -6 22 -6 56 0 34 3 59 6 56 2 -3 5 -28 5 -56z m107 52 c-10 -5 -15 -22 -15
-52 0 -30 5 -47 15 -52 11 -6 11 -7 -4 -5 -16 2 -19 10 -18 55 0 28 1 54 1 57
1 3 9 5 19 4 14 0 14 -2 2 -7z m33 -52 c0 -28 -3 -53 -5 -56 -3 -3 -6 22 -6
56 0 34 3 59 6 56 2 -3 5 -28 5 -56z m57 50 c0 -5 -8 -10 -17 -10 -15 0 -16 2
-3 10 19 12 20 12 20 0z m17 -72 c-2 -18 -4 -6 -4 27 0 33 2 48 4 33 2 -15 2
-42 0 -60z m123 73 c0 -6 -5 -13 -12 -17 -6 -4 -8 -3 -4 4 4 7 -6 12 -26 15
-33 4 -33 4 5 5 20 1 37 -2 37 -7z m90 0 c0 -6 -5 -13 -12 -17 -6 -4 -8 -3 -4
4 4 7 -6 12 -26 15 -33 4 -33 4 5 5 20 1 37 -2 37 -7z m27 -23 c-3 -7 -5 -2
-5 12 0 14 2 19 5 13 2 -7 2 -19 0 -25z m47 24 c3 -5 -1 -9 -9 -9 -8 0 -12 4
-9 9 3 4 7 8 9 8 2 0 6 -4 9 -8z m206 0 c-10 -5 -15 -22 -15 -52 0 -30 5 -47
15 -52 11 -6 11 -7 -4 -5 -16 2 -19 10 -18 55 0 28 1 54 1 57 1 3 9 5 19 4 14
0 14 -2 2 -7z m33 -52 c0 -28 -3 -53 -5 -56 -3 -3 -6 22 -6 56 0 34 3 59 6 56
2 -3 5 -28 5 -56z m107 50 c0 -5 -8 -10 -17 -10 -15 0 -16 2 -3 10 19 12 20
12 20 0z m17 -72 c-2 -18 -4 -6 -4 27 0 33 2 48 4 33 2 -15 2 -42 0 -60z m73
74 c-10 -5 -15 -22 -15 -52 0 -30 5 -47 15 -52 11 -6 11 -7 -4 -5 -16 2 -19
10 -18 55 0 28 1 54 1 57 1 3 9 5 19 4 14 0 14 -2 2 -7z m33 -52 c0 -28 -3
-53 -5 -56 -3 -3 -6 22 -6 56 0 34 3 59 6 56 2 -3 5 -28 5 -56z m44 20 c0 -21
-3 -38 -6 -36 -8 5 -5 76 2 76 2 0 4 -18 4 -40z m197 0 c12 0 -14 -20 -26 -20
-5 0 -8 15 -7 33 0 30 1 31 11 10 6 -13 16 -23 22 -23z m30 28 c-3 -4 -11 -5
-19 -1 -21 7 -19 12 4 10 11 0 18 -5 15 -9z m206 4 c-10 -5 -15 -22 -15 -52 0
-30 5 -47 15 -52 11 -6 11 -7 -4 -5 -16 2 -19 10 -18 55 0 28 1 54 1 57 1 3 9
5 19 4 14 0 14 -2 2 -7z m33 -52 c0 -28 -3 -53 -5 -56 -3 -3 -6 22 -6 56 0 34
3 59 6 56 2 -3 5 -28 5 -56z m97 44 c0 -8 -5 -12 -10 -9 -6 4 -8 11 -5 16 9
14 15 11 15 -7z m46 -9 c2 -14 -24 -30 -34 -20 -3 3 0 5 6 5 7 0 12 10 12 22
0 22 12 18 16 -7z m104 16 c0 -6 -5 -13 -12 -17 -6 -4 -8 -3 -4 4 4 7 -6 12
-26 15 -33 4 -33 4 5 5 20 1 37 -2 37 -7z m27 -23 c-3 -7 -5 -2 -5 12 0 14 2
19 5 13 2 -7 2 -19 0 -25z m47 24 c3 -5 -1 -9 -9 -9 -8 0 -12 4 -9 9 3 4 7 8
9 8 2 0 6 -4 9 -8z m106 -1 c0 -6 -5 -13 -12 -17 -6 -4 -8 -3 -4 4 4 7 -6 12
-26 15 -33 4 -33 4 5 5 20 1 37 -2 37 -7z m90 0 c0 -6 -5 -13 -12 -17 -6 -4
-8 -3 -4 4 4 7 -6 12 -26 15 -33 4 -33 4 5 5 20 1 37 -2 37 -7z m-890 -50
c-25 -36 -39 -42 -18 -8 8 12 18 28 22 35 5 7 10 11 13 8 3 -3 -5 -19 -17 -35z
m-119 -2 c-9 -22 -10 -22 -10 -3 -1 11 2 24 6 27 12 12 14 0 4 -24z m-1054
-11 c-3 -7 -5 -2 -5 12 0 14 2 19 5 13 2 -7 2 -19 0 -25z m80 0 c-3 -7 -5 -2
-5 12 0 14 2 19 5 13 2 -7 2 -19 0 -25z m60 0 c-3 -7 -5 -2 -5 12 0 14 2 19 5
13 2 -7 2 -19 0 -25z m80 0 c-3 -7 -5 -2 -5 12 0 14 2 19 5 13 2 -7 2 -19 0
-25z m155 25 c-6 -2 -9 -10 -6 -15 4 -7 2 -8 -5 -4 -13 9 -5 26 12 25 9 0 8
-2 -1 -6z m90 0 c-6 -2 -9 -10 -6 -15 4 -7 2 -8 -5 -4 -13 9 -5 26 12 25 9 0
8 -2 -1 -6z m275 -25 c-3 -7 -5 -2 -5 12 0 14 2 19 5 13 2 -7 2 -19 0 -25z
m80 0 c-3 -7 -5 -2 -5 12 0 14 2 19 5 13 2 -7 2 -19 0 -25z m150 0 c-3 -7 -5
-2 -5 12 0 14 2 19 5 13 2 -7 2 -19 0 -25z m170 10 c-3 -8 -6 -5 -6 6 -1 11 2
17 5 13 3 -3 4 -12 1 -19z m340 -10 c-3 -7 -5 -2 -5 12 0 14 2 19 5 13 2 -7 2
-19 0 -25z m80 0 c-3 -7 -5 -2 -5 12 0 14 2 19 5 13 2 -7 2 -19 0 -25z m113
-2 c0 -2 -10 -2 -22 -1 -12 1 -22 9 -24 18 -2 15 0 15 22 0 13 -8 24 -16 24
-17z m92 27 c-6 -2 -9 -10 -6 -15 4 -7 2 -8 -5 -4 -13 9 -5 26 12 25 9 0 8 -2
-1 -6z m180 0 c-6 -2 -9 -10 -6 -15 4 -7 2 -8 -5 -4 -13 9 -5 26 12 25 9 0 8
-2 -1 -6z m90 0 c-6 -2 -9 -10 -6 -15 4 -7 2 -8 -5 -4 -13 9 -5 26 12 25 9 0
8 -2 -1 -6z m474 -2 c-3 -5 -16 -11 -28 -14 -22 -6 -22 -5 -4 8 22 17 40 20
32 6z m34 -32 c0 -22 -26 -44 -35 -29 -4 6 -1 9 7 8 7 -2 14 8 16 21 2 15 0
21 -7 17 -7 -5 -8 -1 -4 9 5 13 7 14 14 3 5 -7 9 -20 9 -29z m-1992 3 l-23
-25 23 6 c12 3 19 1 16 -4 -3 -5 -19 -8 -36 -7 l-30 2 24 20 c12 10 22 22 21
26 -1 4 5 7 13 7 10 0 8 -7 -8 -25z m1300 0 l-23 -25 23 6 c12 3 19 1 16 -4
-3 -5 -19 -8 -36 -7 l-30 2 24 20 c12 10 22 22 21 26 -1 4 5 7 13 7 10 0 8 -7
-8 -25z m-2480 -29 c-6 -7 -14 -11 -17 -7 -3 4 0 9 6 11 10 3 10 10 2 26 -10
21 -9 21 5 3 12 -15 13 -23 4 -33z m-62 10 c-10 -10 -19 5 -10 18 6 11 8 11
12 0 2 -7 1 -15 -2 -18z m1818 11 c6 -15 4 -15 -11 -3 -10 7 -20 15 -22 16 -2
2 3 3 11 3 9 0 19 -7 22 -16z m140 -33 c-8 -9 -22 12 -17 26 6 15 7 14 13 -3
4 -10 6 -21 4 -23z m1316 18 c0 -6 -4 -7 -10 -4 -5 3 -10 11 -10 16 0 6 5 7
10 4 6 -3 10 -11 10 -16z m26 2 c-3 -5 1 -14 9 -21 16 -13 20 -30 8 -30 -11 0
-32 48 -25 55 8 8 14 6 8 -4z m39 0 c-3 -5 -1 -12 5 -16 5 -3 10 -11 10 -17 0
-6 -8 -3 -19 8 -18 19 -19 34 0 34 6 0 8 -4 4 -9z m35 5 c0 -3 -4 -8 -10 -11
-5 -3 -10 -1 -10 4 0 6 5 11 10 11 6 0 10 -2 10 -4z m17 -18 c-3 -8 -6 -5 -6
6 -1 11 2 17 5 13 3 -3 4 -12 1 -19z m78 1 c8 -23 -8 -39 -35 -38 -8 0 -5 4 8
9 27 12 29 30 2 23 -14 -4 -20 0 -20 11 0 24 37 20 45 -5z m52 15 c-3 -4 -2
-15 3 -25 6 -11 6 -20 1 -24 -5 -3 -11 5 -13 17 -2 13 -9 22 -16 20 -8 -1 -11
2 -7 8 3 5 13 10 22 10 9 0 13 -3 10 -6z m28 -3 c-3 -5 -1 -12 5 -16 5 -3 10
-11 10 -18 0 -7 -7 -5 -16 5 -14 14 -13 38 2 38 3 0 3 -4 -1 -9z m45 -1 c0 -5
-7 -10 -15 -10 -8 0 -15 5 -15 10 0 6 7 10 15 10 8 0 15 -4 15 -10z m-1790
-10 c0 -5 -12 -10 -27 -9 l-28 1 25 8 c14 4 26 8 28 9 1 1 2 -3 2 -9z m200 4
c0 -8 -19 -13 -24 -6 -3 5 1 9 9 9 8 0 15 -2 15 -3z m375 -4 c-3 -5 -14 -10
-23 -10 -15 0 -15 2 -2 10 20 13 33 13 25 0z m1024 -31 c-19 -11 -24 -3 -8 14
8 9 16 11 18 5 2 -6 -3 -14 -10 -19z m-152 -1 c-3 -8 -6 -5 -6 6 -1 11 2 17 5
13 3 -3 4 -12 1 -19z m253 2 c0 -5 -5 -10 -11 -10 -5 0 -7 5 -4 10 3 6 8 10
11 10 2 0 4 -4 4 -10z m-3590 -6 c0 -8 -19 -13 -24 -6 -3 5 1 9 9 9 8 0 15 -2
15 -3z m244 -2 c3 -5 -1 -9 -9 -9 -8 0 -12 4 -9 9 3 4 7 8 9 8 2 0 6 -4 9 -8z
m506 2 c0 -8 -19 -13 -24 -6 -3 5 1 9 9 9 8 0 15 -2 15 -3z m2124 -2 c3 -5 -1
-9 -9 -9 -8 0 -12 4 -9 9 3 4 7 8 9 8 2 0 6 -4 9 -8z m296 2 c0 -8 -19 -13
-24 -6 -3 5 1 9 9 9 8 0 15 -2 15 -3z m554 -2 c3 -5 -1 -9 -9 -9 -8 0 -12 4
-9 9 3 4 7 8 9 8 2 0 6 -4 9 -8z"/>
</g>
</svg>
