<?xml version="1.0" standalone="no"?>
<!DOCTYPE svg PUBLIC "-//W3C//DTD SVG 20010904//EN"
 "http://www.w3.org/TR/2001/REC-SVG-20010904/DTD/svg10.dtd">
<svg version="1.0" xmlns="http://www.w3.org/2000/svg"
 width="426.000000pt" height="187.000000pt" viewBox="0 0 426.000000 187.000000"
 preserveAspectRatio="xMidYMid meet">

<g transform="translate(0.000000,187.000000) scale(0.100000,-0.100000)"
fill="#000000" stroke="none">
<path d="M0 935 l0 -935 38 0 c46 0 56 8 39 29 -11 14 -10 14 5 2 10 -7 15
-17 12 -22 -3 -5 870 -9 2080 -9 l2086 0 0 720 c0 553 -3 720 -12 720 -9 0 -9
3 0 12 9 9 12 70 12 215 l0 203 -2130 0 -2130 0 0 -935z m80 921 c0 -2 -8 -10
-17 -17 -16 -13 -17 -12 -4 4 13 16 21 21 21 13z m20 -10 c0 -2 -8 -10 -17
-17 -16 -13 -17 -12 -4 4 13 16 21 21 21 13z m474 -37 c-3 -5 -10 -7 -15 -3
-5 3 -7 10 -3 15 3 5 10 7 15 3 5 -3 7 -10 3 -15z m2130 0 c-3 -5 -10 -7 -15
-3 -5 3 -7 10 -3 15 3 5 10 7 15 3 5 -3 7 -10 3 -15z m540 0 c-3 -5 -10 -7
-15 -3 -5 3 -7 10 -3 15 3 5 10 7 15 3 5 -3 7 -10 3 -15z m-3177 -612 c-1
-111 -2 -20 -2 203 0 223 1 314 2 202 2 -111 2 -293 0 -405z m527 595 c3 -5
-1 -9 -9 -9 -8 0 -12 4 -9 9 3 4 7 8 9 8 2 0 6 -4 9 -8z m2130 0 c3 -5 -1 -9
-9 -9 -8 0 -12 4 -9 9 3 4 7 8 9 8 2 0 6 -4 9 -8z m540 0 c3 -5 -1 -9 -9 -9
-8 0 -12 4 -9 9 3 4 7 8 9 8 2 0 6 -4 9 -8z m-1874 -12 c0 -5 -8 -10 -17 -10
-15 0 -16 2 -3 10 19 12 20 12 20 0z m17 -72 c-2 -18 -4 -6 -4 27 0 33 2 48 4
33 2 -15 2 -42 0 -60z m473 74 c-10 -5 -15 -22 -15 -52 0 -30 5 -47 15 -52 11
-6 11 -7 -4 -5 -16 2 -19 10 -18 55 0 28 1 54 1 57 1 3 9 5 19 4 14 0 14 -2 2
-7z m33 -52 c0 -28 -3 -53 -5 -56 -3 -3 -6 22 -6 56 0 34 3 59 6 56 2 -3 5
-28 5 -56z m457 52 c-10 -5 -15 -22 -15 -52 0 -30 5 -47 15 -52 11 -6 11 -7
-4 -5 -16 2 -19 10 -18 55 0 28 1 54 1 57 1 3 9 5 19 4 14 0 14 -2 2 -7z m33
-52 c0 -28 -3 -53 -5 -56 -3 -3 -6 22 -6 56 0 34 3 59 6 56 2 -3 5 -28 5 -56z
m-556 -12 c-3 -7 -5 -2 -5 12 0 14 2 19 5 13 2 -7 2 -19 0 -25z m80 0 c-3 -7
-5 -2 -5 12 0 14 2 19 5 13 2 -7 2 -19 0 -25z m410 0 c-3 -7 -5 -2 -5 12 0 14
2 19 5 13 2 -7 2 -19 0 -25z m80 0 c-3 -7 -5 -2 -5 12 0 14 2 19 5 13 2 -7 2
-19 0 -25z m-1977 -8 c0 -5 -5 -10 -11 -10 -5 0 -7 5 -4 10 3 6 8 10 11 10 2
0 4 -4 4 -10z m2730 0 c0 -5 -5 -10 -11 -10 -5 0 -7 5 -4 10 3 6 8 10 11 10 2
0 4 -4 4 -10z m-2672 -35 c6 -14 7 -27 2 -30 -5 -3 -10 5 -12 17 -2 13 -9 22
-16 20 -8 -1 -11 2 -7 8 10 16 21 12 33 -15z m-51 -17 c-3 -8 -6 -5 -6 6 -1
11 2 17 5 13 3 -3 4 -12 1 -19z m190 0 c-3 -8 -6 -5 -6 6 -1 11 2 17 5 13 3
-3 4 -12 1 -19z m2130 0 c-3 -8 -6 -5 -6 6 -1 11 2 17 5 13 3 -3 4 -12 1 -19z
m540 0 c-3 -8 -6 -5 -6 6 -1 11 2 17 5 13 3 -3 4 -12 1 -19z m-2827 -8 c0 -5
-5 -10 -11 -10 -5 0 -7 5 -4 10 3 6 8 10 11 10 2 0 4 -4 4 -10z m137 -12 c-3
-8 -6 -5 -6 6 -1 11 2 17 5 13 3 -3 4 -12 1 -19z m2130 0 c-3 -8 -6 -5 -6 6
-1 11 2 17 5 13 3 -3 4 -12 1 -19z m540 0 c-3 -8 -6 -5 -6 6 -1 11 2 17 5 13
3 -3 4 -12 1 -19z m-3100 -55 c-3 -10 -5 -4 -5 12 0 17 2 24 5 18 2 -7 2 -21
0 -30z m810 0 c-3 -10 -5 -4 -5 12 0 17 2 24 5 18 2 -7 2 -21 0 -30z m1920 0
c-3 -10 -5 -4 -5 12 0 17 2 24 5 18 2 -7 2 -21 0 -30z m-2270 -10 c-3 -10 -5
-4 -5 12 0 17 2 24 5 18 2 -7 2 -21 0 -30z m2130 0 c-3 -10 -5 -4 -5 12 0 17
2 24 5 18 2 -7 2 -21 0 -30z m540 0 c-3 -10 -5 -4 -5 12 0 17 2 24 5 18 2 -7
2 -21 0 -30z m-3110 -185 c-2 -35 -3 -9 -3 57 0 66 1 94 3 63 2 -32 2 -86 0
-120z m810 0 c-2 -35 -3 -9 -3 57 0 66 1 94 3 63 2 -32 2 -86 0 -120z m1920 0
c-2 -35 -3 -9 -3 57 0 66 1 94 3 63 2 -32 2 -86 0 -120z m-2310 10 c-2 -29 -3
-8 -3 47 0 55 1 79 3 53 2 -26 2 -71 0 -100z m2130 0 c-2 -29 -3 -8 -3 47 0
55 1 79 3 53 2 -26 2 -71 0 -100z m540 0 c-2 -29 -3 -8 -3 47 0 55 1 79 3 53
2 -26 2 -71 0 -100z m412 133 c0 -3 -4 -15 -8 -26 -7 -18 -8 -17 -13 6 -3 17
0 26 9 26 7 0 13 -3 12 -6z m181 1 c0 -5 -7 -9 -15 -9 -8 0 -15 4 -15 9 0 4 7
8 15 8 8 0 15 -4 15 -8z m-3523 -24 c-3 -8 -6 -5 -6 6 -1 11 2 17 5 13 3 -3 4
-12 1 -19z m2730 0 c-3 -8 -6 -5 -6 6 -1 11 2 17 5 13 3 -3 4 -12 1 -19z m973
12 c0 -5 -2 -10 -4 -10 -3 0 -8 5 -11 10 -3 6 -1 10 4 10 6 0 11 -4 11 -10z
m-3730 -54 c-6 -26 -8 -51 -5 -57 3 -5 -1 -6 -9 -3 -8 3 -13 11 -11 17 2 7 9
32 15 56 15 57 24 46 10 -13z m91 16 c-6 -2 -18 -17 -27 -33 -15 -30 -34 -31
-34 -1 0 12 2 14 8 4 6 -8 16 1 32 30 20 35 25 39 28 23 3 -10 -1 -21 -7 -23z
m709 30 c-10 -5 -15 -22 -15 -52 0 -30 5 -47 15 -52 11 -6 11 -7 -4 -5 -16 2
-19 10 -18 55 0 28 1 54 1 57 1 3 9 5 19 4 14 0 14 -2 2 -7z m33 -52 c0 -28
-3 -53 -5 -56 -3 -3 -6 22 -6 56 0 34 3 59 6 56 2 -3 5 -28 5 -56z m97 44 c0
-8 -5 -12 -10 -9 -6 4 -8 11 -5 16 9 14 15 11 15 -7z m46 -9 c2 -14 -24 -30
-34 -20 -3 3 0 5 6 5 7 0 12 10 12 22 0 22 12 18 16 -7z m41 -7 c-3 -7 -5 -2
-5 12 0 14 2 19 5 13 2 -7 2 -19 0 -25z m47 24 c3 -5 -1 -9 -9 -9 -8 0 -12 4
-9 9 3 4 7 8 9 8 2 0 6 -4 9 -8z m106 -1 c0 -6 -5 -13 -12 -17 -6 -4 -8 -3 -4
4 4 7 -6 12 -26 15 -33 4 -33 4 5 5 20 1 37 -2 37 -7z m30 -7 c0 -8 -5 -12
-10 -9 -6 4 -8 11 -5 16 9 14 15 11 15 -7z m46 -9 c2 -14 -24 -30 -34 -20 -3
3 0 5 6 5 7 0 12 10 12 22 0 22 12 18 16 -7z m54 15 c0 -5 -8 -10 -17 -10 -15
0 -16 2 -3 10 19 12 20 12 20 0z m17 -72 c-2 -18 -4 -6 -4 27 0 33 2 48 4 33
2 -15 2 -42 0 -60z m223 74 c-10 -5 -15 -22 -15 -52 0 -30 5 -47 15 -52 11 -6
11 -7 -4 -5 -16 2 -19 10 -18 55 0 28 1 54 1 57 1 3 9 5 19 4 14 0 14 -2 2 -7z
m33 -52 c0 -28 -3 -53 -5 -56 -3 -3 -6 22 -6 56 0 34 3 59 6 56 2 -3 5 -28 5
-56z m207 52 c-10 -5 -15 -22 -15 -52 0 -30 5 -47 15 -52 11 -6 11 -7 -4 -5
-16 2 -19 10 -18 55 0 28 1 54 1 57 1 3 9 5 19 4 14 0 14 -2 2 -7z m33 -52 c0
-28 -3 -53 -5 -56 -3 -3 -6 22 -6 56 0 34 3 59 6 56 2 -3 5 -28 5 -56z m107
50 c0 -5 -8 -10 -17 -10 -15 0 -16 2 -3 10 19 12 20 12 20 0z m17 -72 c-2 -18
-4 -6 -4 27 0 33 2 48 4 33 2 -15 2 -42 0 -60z m123 73 c0 -6 -5 -13 -12 -17
-6 -4 -8 -3 -4 4 4 7 -6 12 -26 15 -33 4 -33 4 5 5 20 1 37 -2 37 -7z m27 -23
c-3 -7 -5 -2 -5 12 0 14 2 19 5 13 2 -7 2 -19 0 -25z m47 24 c3 -5 -1 -9 -9
-9 -8 0 -12 4 -9 9 3 4 7 8 9 8 2 0 6 -4 9 -8z m56 -2 c0 -5 -8 -10 -17 -10
-15 0 -16 2 -3 10 19 12 20 12 20 0z m17 -72 c-2 -18 -4 -6 -4 27 0 33 2 48 4
33 2 -15 2 -42 0 -60z m113 78 c0 -2 -11 -6 -25 -8 -14 -3 -25 -1 -25 3 0 5
11 9 25 9 14 0 25 -2 25 -4z m410 -50 c-6 -26 -8 -51 -5 -57 3 -5 -1 -6 -9 -3
-8 3 -13 11 -11 17 2 7 9 32 15 56 15 57 24 46 10 -13z m91 16 c-6 -2 -18 -17
-27 -33 -15 -30 -34 -31 -34 -1 0 12 2 14 8 4 6 -8 16 1 32 30 20 35 25 39 28
23 3 -10 -1 -21 -7 -23z m-532 -9 c2 -2 -3 -3 -11 -3 -9 0 -19 7 -22 16 -6 15
-4 15 11 3 10 -7 20 -15 22 -16z m1034 -56 c8 -6 7 -7 -3 -4 -10 2 -15 17 -16
43 -1 37 -1 38 3 4 3 -19 10 -39 16 -43z m327 45 c0 -15 -2 -15 -10 -2 -13 20
-13 33 0 25 6 -3 10 -14 10 -23z m-3633 -4 c-3 -8 -6 -5 -6 6 -1 11 2 17 5 13
3 -3 4 -12 1 -19z m750 -10 c-3 -7 -5 -2 -5 12 0 14 2 19 5 13 2 -7 2 -19 0
-25z m80 0 c-3 -7 -5 -2 -5 12 0 14 2 19 5 13 2 -7 2 -19 0 -25z m113 -2 c0
-2 -10 -2 -22 -1 -12 1 -22 9 -24 18 -2 15 0 15 22 0 13 -8 24 -16 24 -17z
m182 27 c-6 -2 -9 -10 -6 -15 4 -7 2 -8 -5 -4 -13 9 -5 26 12 25 9 0 8 -2 -1
-6z m88 -27 c0 -2 -10 -2 -22 -1 -12 1 -22 9 -24 18 -2 15 0 15 22 0 13 -8 24
-16 24 -17z m277 2 c-3 -7 -5 -2 -5 12 0 14 2 19 5 13 2 -7 2 -19 0 -25z m80
0 c-3 -7 -5 -2 -5 12 0 14 2 19 5 13 2 -7 2 -19 0 -25z m160 0 c-3 -7 -5 -2
-5 12 0 14 2 19 5 13 2 -7 2 -19 0 -25z m80 0 c-3 -7 -5 -2 -5 12 0 14 2 19 5
13 2 -7 2 -19 0 -25z m205 25 c-6 -2 -9 -10 -6 -15 4 -7 2 -8 -5 -4 -13 9 -5
26 12 25 9 0 8 -2 -1 -6z m282 -32 c-1 -46 -11 -48 -11 -1 0 21 3 38 6 36 3
-2 6 -18 5 -35z m433 17 c-3 -8 -6 -5 -6 6 -1 11 2 17 5 13 3 -3 4 -12 1 -19z
m615 -12 c2 -19 0 -32 -4 -30 -8 5 -12 64 -4 64 2 0 6 -15 8 -34z m-2314 -4
l-23 -25 23 6 c12 3 19 1 16 -4 -3 -5 -19 -8 -36 -7 l-30 2 24 20 c12 10 22
22 21 26 -1 4 5 7 13 7 10 0 8 -7 -8 -25z m1070 0 l-23 -25 23 6 c12 3 19 1
16 -4 -3 -5 -19 -8 -36 -7 l-30 2 24 20 c12 10 22 22 21 26 -1 4 5 7 13 7 10
0 8 -7 -8 -25z m129 6 c-3 -8 -6 -5 -6 6 -1 11 2 17 5 13 3 -3 4 -12 1 -19z
m1271 -25 c-6 -7 -14 -11 -17 -7 -3 4 0 9 6 11 10 3 10 10 2 26 -10 21 -9 21
5 3 12 -15 13 -23 4 -33z m-1250 8 c-1 -16 -5 -28 -9 -26 -6 5 0 55 7 55 3 0
3 -13 2 -29z m1188 2 c-10 -10 -19 5 -10 18 6 11 8 11 12 0 2 -7 1 -15 -2 -18z
m-3278 -18 c6 -14 7 -27 2 -30 -5 -3 -10 5 -12 17 -2 13 -9 22 -16 20 -8 -1
-11 2 -7 8 10 16 21 12 33 -15z m3546 17 c3 -5 -1 -9 -9 -9 -8 0 -12 4 -9 9 3
4 7 8 9 8 2 0 6 -4 9 -8z m-3620 -18 c3 -8 2 -12 -4 -9 -6 3 -10 10 -10 16 0
14 7 11 14 -7z m2730 0 c3 -8 2 -12 -4 -9 -6 3 -10 10 -10 16 0 14 7 11 14 -7z
m-2707 -16 c-3 -8 -6 -5 -6 6 -1 11 2 17 5 13 3 -3 4 -12 1 -19z m848 12 c-3
-5 -14 -10 -23 -10 -15 0 -15 2 -2 10 20 13 33 13 25 0z m270 0 c-3 -5 -14
-10 -23 -10 -15 0 -15 2 -2 10 20 13 33 13 25 0z m-1085 -20 c0 -5 -5 -10 -11
-10 -5 0 -7 5 -4 10 3 6 8 10 11 10 2 0 4 -4 4 -10z m147 -77 c-3 -10 -5 -4
-5 12 0 17 2 24 5 18 2 -7 2 -21 0 -30z m2130 0 c-3 -10 -5 -4 -5 12 0 17 2
24 5 18 2 -7 2 -21 0 -30z m540 0 c-3 -10 -5 -4 -5 12 0 17 2 24 5 18 2 -7 2
-21 0 -30z m-3130 -15 c-3 -7 -5 -2 -5 12 0 14 2 19 5 13 2 -7 2 -19 0 -25z
m810 0 c-3 -7 -5 -2 -5 12 0 14 2 19 5 13 2 -7 2 -19 0 -25z m1920 0 c-3 -7
-5 -2 -5 12 0 14 2 19 5 13 2 -7 2 -19 0 -25z m-2300 -40 c-3 -8 -6 -5 -6 6
-1 11 2 17 5 13 3 -3 4 -12 1 -19z m2130 0 c-3 -8 -6 -5 -6 6 -1 11 2 17 5 13
3 -3 4 -12 1 -19z m540 0 c-3 -8 -6 -5 -6 6 -1 11 2 17 5 13 3 -3 4 -12 1 -19z
m-3070 -10 c-3 -8 -6 -5 -6 6 -1 11 2 17 5 13 3 -3 4 -12 1 -19z m233 14 c0
-5 -7 -9 -15 -9 -8 0 -15 4 -15 9 0 4 7 8 15 8 8 0 15 -4 15 -8z m577 -14 c-3
-8 -6 -5 -6 6 -1 11 2 17 5 13 3 -3 4 -12 1 -19z m1920 0 c-3 -8 -6 -5 -6 6
-1 11 2 17 5 13 3 -3 4 -12 1 -19z m223 14 c0 -5 -7 -9 -15 -9 -8 0 -15 4 -15
9 0 4 7 8 15 8 8 0 15 -4 15 -8z m-1780 -10 c-10 -5 -15 -22 -15 -52 0 -30 5
-47 15 -52 11 -6 11 -7 -4 -5 -16 2 -19 10 -18 55 0 28 1 54 1 57 1 3 9 5 19
4 14 0 14 -2 2 -7z m33 -52 c0 -28 -3 -53 -5 -56 -3 -3 -6 22 -6 56 0 34 3 59
6 56 2 -3 5 -28 5 -56z m457 52 c-10 -5 -15 -22 -15 -52 0 -30 5 -47 15 -52
11 -6 11 -7 -4 -5 -16 2 -19 10 -18 55 0 28 1 54 1 57 1 3 9 5 19 4 14 0 14
-2 2 -7z m33 -52 c0 -28 -3 -53 -5 -56 -3 -3 -6 22 -6 56 0 34 3 59 6 56 2 -3
5 -28 5 -56z m457 50 c0 -5 -8 -10 -17 -10 -15 0 -16 2 -3 10 19 12 20 12 20
0z m17 -72 c-2 -18 -4 -6 -4 27 0 33 2 48 4 33 2 -15 2 -42 0 -60z m-1030 10
c-3 -7 -5 -2 -5 12 0 14 2 19 5 13 2 -7 2 -19 0 -25z m80 0 c-3 -7 -5 -2 -5
12 0 14 2 19 5 13 2 -7 2 -19 0 -25z m410 0 c-3 -7 -5 -2 -5 12 0 14 2 19 5
13 2 -7 2 -19 0 -25z m80 0 c-3 -7 -5 -2 -5 12 0 14 2 19 5 13 2 -7 2 -19 0
-25z m-1509 -35 c-6 -7 -14 -11 -17 -7 -3 4 0 9 6 11 10 3 10 10 2 26 -10 21
-9 21 5 3 12 -15 13 -23 4 -33z m2720 0 c-6 -7 -14 -11 -17 -7 -3 4 0 9 6 11
10 3 10 10 2 26 -10 21 -9 21 5 3 12 -15 13 -23 4 -33z m-2782 10 c-10 -10
-19 5 -10 18 6 11 8 11 12 0 2 -7 1 -15 -2 -18z m2720 0 c-10 -10 -19 5 -10
18 6 11 8 11 12 0 2 -7 1 -15 -2 -18z m-2578 -18 c6 -14 7 -27 2 -30 -5 -3
-10 5 -12 17 -2 13 -9 22 -16 20 -8 -1 -11 2 -7 8 10 16 21 12 33 -15z m-51
-17 c-3 -8 -6 -5 -6 6 -1 11 2 17 5 13 3 -3 4 -12 1 -19z m33 -8 c0 -5 -5 -10
-11 -10 -5 0 -7 5 -4 10 3 6 8 10 11 10 2 0 4 -4 4 -10z m-210 -16 c0 -8 -19
-13 -24 -6 -3 5 1 9 9 9 8 0 15 -2 15 -3z m304 -2 c3 -5 -1 -9 -9 -9 -8 0 -12
4 -9 9 3 4 7 8 9 8 2 0 6 -4 9 -8z m506 2 c0 -8 -19 -13 -24 -6 -3 5 1 9 9 9
8 0 15 -2 15 -3z m1624 -2 c3 -5 -1 -9 -9 -9 -8 0 -12 4 -9 9 3 4 7 8 9 8 2 0
6 -4 9 -8z m296 2 c0 -8 -19 -13 -24 -6 -3 5 1 9 9 9 8 0 15 -2 15 -3z m244
-2 c3 -5 -1 -9 -9 -9 -8 0 -12 4 -9 9 3 4 7 8 9 8 2 0 6 -4 9 -8z m-3204 -157
c-10 -12 -10 -18 1 -32 12 -17 12 -17 -6 -1 -15 14 -16 20 -5 32 7 9 15 16 17
16 3 0 0 -7 -7 -15z m-3 -87 c-3 -8 -6 -5 -6 6 -1 11 2 17 5 13 3 -3 4 -12 1
-19z m30 -601 c-1 -111 -2 -20 -2 203 0 223 1 314 2 202 2 -111 2 -293 0 -405z
m507 492 c-3 -5 -10 -7 -15 -3 -5 3 -7 10 -3 15 3 5 10 7 15 3 5 -3 7 -10 3
-15z m2130 0 c-3 -5 -10 -7 -15 -3 -5 3 -7 10 -3 15 3 5 10 7 15 3 5 -3 7 -10
3 -15z m540 0 c-3 -5 -10 -7 -15 -3 -5 3 -7 10 -3 15 3 5 10 7 15 3 5 -3 7
-10 3 -15z m-2650 -17 c3 -5 -1 -9 -9 -9 -8 0 -12 4 -9 9 3 4 7 8 9 8 2 0 6
-4 9 -8z m2130 0 c3 -5 -1 -9 -9 -9 -8 0 -12 4 -9 9 3 4 7 8 9 8 2 0 6 -4 9
-8z m540 0 c3 -5 -1 -9 -9 -9 -8 0 -12 4 -9 9 3 4 7 8 9 8 2 0 6 -4 9 -8z
m-1874 -12 c0 -5 -8 -10 -17 -10 -15 0 -16 2 -3 10 19 12 20 12 20 0z m17 -72
c-2 -18 -4 -6 -4 27 0 33 2 48 4 33 2 -15 2 -42 0 -60z m473 74 c-10 -5 -15
-22 -15 -52 0 -30 5 -47 15 -52 11 -6 11 -7 -4 -5 -16 2 -19 10 -18 55 0 28 1
54 1 57 1 3 9 5 19 4 14 0 14 -2 2 -7z m33 -52 c0 -28 -3 -53 -5 -56 -3 -3 -6
22 -6 56 0 34 3 59 6 56 2 -3 5 -28 5 -56z m457 52 c-10 -5 -15 -22 -15 -52 0
-30 5 -47 15 -52 11 -6 11 -7 -4 -5 -16 2 -19 10 -18 55 0 28 1 54 1 57 1 3 9
5 19 4 14 0 14 -2 2 -7z m33 -52 c0 -28 -3 -53 -5 -56 -3 -3 -6 22 -6 56 0 34
3 59 6 56 2 -3 5 -28 5 -56z m-556 -12 c-3 -7 -5 -2 -5 12 0 14 2 19 5 13 2
-7 2 -19 0 -25z m80 0 c-3 -7 -5 -2 -5 12 0 14 2 19 5 13 2 -7 2 -19 0 -25z
m410 0 c-3 -7 -5 -2 -5 12 0 14 2 19 5 13 2 -7 2 -19 0 -25z m80 0 c-3 -7 -5
-2 -5 12 0 14 2 19 5 13 2 -7 2 -19 0 -25z m-1977 -8 c0 -5 -5 -10 -11 -10 -5
0 -7 5 -4 10 3 6 8 10 11 10 2 0 4 -4 4 -10z m2730 0 c0 -5 -5 -10 -11 -10 -5
0 -7 5 -4 10 3 6 8 10 11 10 2 0 4 -4 4 -10z m-2672 -35 c6 -14 7 -27 2 -30
-5 -3 -10 5 -12 17 -2 13 -9 22 -16 20 -8 -1 -11 2 -7 8 10 16 21 12 33 -15z
m-51 -17 c-3 -8 -6 -5 -6 6 -1 11 2 17 5 13 3 -3 4 -12 1 -19z m190 0 c-3 -8
-6 -5 -6 6 -1 11 2 17 5 13 3 -3 4 -12 1 -19z m2130 0 c-3 -8 -6 -5 -6 6 -1
11 2 17 5 13 3 -3 4 -12 1 -19z m540 0 c-3 -8 -6 -5 -6 6 -1 11 2 17 5 13 3
-3 4 -12 1 -19z m-2827 -8 c0 -5 -5 -10 -11 -10 -5 0 -7 5 -4 10 3 6 8 10 11
10 2 0 4 -4 4 -10z m137 -12 c-3 -8 -6 -5 -6 6 -1 11 2 17 5 13 3 -3 4 -12 1
-19z m2130 0 c-3 -8 -6 -5 -6 6 -1 11 2 17 5 13 3 -3 4 -12 1 -19z m540 0 c-3
-8 -6 -5 -6 6 -1 11 2 17 5 13 3 -3 4 -12 1 -19z m-3100 -55 c-3 -10 -5 -4 -5
12 0 17 2 24 5 18 2 -7 2 -21 0 -30z m810 0 c-3 -10 -5 -4 -5 12 0 17 2 24 5
18 2 -7 2 -21 0 -30z m1920 0 c-3 -10 -5 -4 -5 12 0 17 2 24 5 18 2 -7 2 -21
0 -30z m-2270 -10 c-3 -10 -5 -4 -5 12 0 17 2 24 5 18 2 -7 2 -21 0 -30z
m2130 0 c-3 -10 -5 -4 -5 12 0 17 2 24 5 18 2 -7 2 -21 0 -30z m540 0 c-3 -10
-5 -4 -5 12 0 17 2 24 5 18 2 -7 2 -21 0 -30z m-3110 -185 c-2 -35 -3 -9 -3
57 0 66 1 94 3 63 2 -32 2 -86 0 -120z m810 0 c-2 -35 -3 -9 -3 57 0 66 1 94
3 63 2 -32 2 -86 0 -120z m1920 0 c-2 -35 -3 -9 -3 57 0 66 1 94 3 63 2 -32 2
-86 0 -120z m-2310 10 c-2 -29 -3 -8 -3 47 0 55 1 79 3 53 2 -26 2 -71 0 -100z
m2130 0 c-2 -29 -3 -8 -3 47 0 55 1 79 3 53 2 -26 2 -71 0 -100z m540 0 c-2
-29 -3 -8 -3 47 0 55 1 79 3 53 2 -26 2 -71 0 -100z m412 133 c0 -3 -4 -15 -8
-26 -7 -18 -8 -17 -13 6 -3 17 0 26 9 26 7 0 13 -3 12 -6z m181 1 c0 -5 -7 -9
-15 -9 -8 0 -15 4 -15 9 0 4 7 8 15 8 8 0 15 -4 15 -8z m-3523 -24 c-3 -8 -6
-5 -6 6 -1 11 2 17 5 13 3 -3 4 -12 1 -19z m2730 0 c-3 -8 -6 -5 -6 6 -1 11 2
17 5 13 3 -3 4 -12 1 -19z m-2757 -42 c-6 -26 -8 -51 -5 -57 3 -5 -1 -6 -9 -3
-8 3 -13 11 -11 17 2 7 9 32 15 56 15 57 24 46 10 -13z m91 16 c-6 -2 -18 -17
-27 -33 -15 -30 -34 -31 -34 -1 0 12 2 14 8 4 6 -8 16 1 32 30 20 35 25 39 28
23 3 -10 -1 -21 -7 -23z m709 30 c-10 -5 -15 -22 -15 -52 0 -30 5 -47 15 -52
11 -6 11 -7 -4 -5 -16 2 -19 10 -18 55 0 28 1 54 1 57 1 3 9 5 19 4 14 0 14
-2 2 -7z m33 -52 c0 -28 -3 -53 -5 -56 -3 -3 -6 22 -6 56 0 34 3 59 6 56 2 -3
5 -28 5 -56z m97 44 c0 -8 -5 -12 -10 -9 -6 4 -8 11 -5 16 9 14 15 11 15 -7z
m46 -9 c2 -14 -24 -30 -34 -20 -3 3 0 5 6 5 7 0 12 10 12 22 0 22 12 18 16 -7z
m54 15 c0 -5 -8 -10 -17 -10 -15 0 -16 2 -3 10 19 12 20 12 20 0z m17 -72 c-2
-18 -4 -6 -4 27 0 33 2 48 4 33 2 -15 2 -42 0 -60z m60 42 c0 -21 -3 -38 -6
-36 -8 5 -5 76 2 76 2 0 4 -18 4 -40z m107 0 c12 0 -14 -20 -26 -20 -5 0 -8
15 -7 33 0 30 1 31 11 10 6 -13 16 -23 22 -23z m30 28 c-3 -4 -11 -5 -19 -1
-21 7 -19 12 4 10 11 0 18 -5 15 -9z m56 2 c0 -5 -8 -10 -17 -10 -15 0 -16 2
-3 10 19 12 20 12 20 0z m17 -72 c-2 -18 -4 -6 -4 27 0 33 2 48 4 33 2 -15 2
-42 0 -60z m223 74 c-10 -5 -15 -22 -15 -52 0 -30 5 -47 15 -52 11 -6 11 -7
-4 -5 -16 2 -19 10 -18 55 0 28 1 54 1 57 1 3 9 5 19 4 14 0 14 -2 2 -7z m33
-52 c0 -28 -3 -53 -5 -56 -3 -3 -6 22 -6 56 0 34 3 59 6 56 2 -3 5 -28 5 -56z
m207 52 c-10 -5 -15 -22 -15 -52 0 -30 5 -47 15 -52 11 -6 11 -7 -4 -5 -16 2
-19 10 -18 55 0 28 1 54 1 57 1 3 9 5 19 4 14 0 14 -2 2 -7z m33 -52 c0 -28
-3 -53 -5 -56 -3 -3 -6 22 -6 56 0 34 3 59 6 56 2 -3 5 -28 5 -56z m107 50 c0
-5 -8 -10 -17 -10 -15 0 -16 2 -3 10 19 12 20 12 20 0z m17 -72 c-2 -18 -4 -6
-4 27 0 33 2 48 4 33 2 -15 2 -42 0 -60z m63 66 c0 -8 -5 -12 -10 -9 -6 4 -8
11 -5 16 9 14 15 11 15 -7z m46 -9 c2 -14 -24 -30 -34 -20 -3 3 0 5 6 5 7 0
12 10 12 22 0 22 12 18 16 -7z m54 17 c-10 -5 -15 -22 -15 -52 0 -30 5 -47 15
-52 11 -6 11 -7 -4 -5 -16 2 -19 10 -18 55 0 28 1 54 1 57 1 3 9 5 19 4 14 0
14 -2 2 -7z m33 -52 c0 -28 -3 -53 -5 -56 -3 -3 -6 22 -6 56 0 34 3 59 6 56 2
-3 5 -28 5 -56z m187 56 c0 -2 -11 -6 -25 -8 -14 -3 -25 -1 -25 3 0 5 11 9 25
9 14 0 25 -2 25 -4z m410 -50 c-6 -26 -8 -51 -5 -57 3 -5 -1 -6 -9 -3 -8 3
-13 11 -11 17 2 7 9 32 15 56 15 57 24 46 10 -13z m91 16 c-6 -2 -18 -17 -27
-33 -15 -30 -34 -31 -34 -1 0 12 2 14 8 4 6 -8 16 1 32 30 20 35 25 39 28 23
3 -10 -1 -21 -7 -23z m809 24 c0 -3 -4 -8 -10 -11 -5 -3 -10 -1 -10 4 0 6 5
11 10 11 6 0 10 -2 10 -4z m-1450 -46 c-23 -33 -41 -32 -39 3 1 22 1 22 7 -1
7 -23 7 -23 25 8 11 17 21 29 24 26 3 -3 -5 -19 -17 -36z m109 13 c2 -2 -3 -3
-11 -3 -9 0 -19 7 -22 16 -6 15 -4 15 11 3 10 -7 20 -15 22 -16z m1034 -56 c8
-6 7 -7 -3 -4 -10 2 -15 17 -16 43 -1 37 -1 38 3 4 3 -19 10 -39 16 -43z
m-3306 41 c-3 -8 -6 -5 -6 6 -1 11 2 17 5 13 3 -3 4 -12 1 -19z m750 -10 c-3
-7 -5 -2 -5 12 0 14 2 19 5 13 2 -7 2 -19 0 -25z m80 0 c-3 -7 -5 -2 -5 12 0
14 2 19 5 13 2 -7 2 -19 0 -25z m113 -2 c0 -2 -10 -2 -22 -1 -12 1 -22 9 -24
18 -2 15 0 15 22 0 13 -8 24 -16 24 -17z m207 12 c-3 -8 -6 -5 -6 6 -1 11 2
17 5 13 3 -3 4 -12 1 -19z m340 -10 c-3 -7 -5 -2 -5 12 0 14 2 19 5 13 2 -7 2
-19 0 -25z m80 0 c-3 -7 -5 -2 -5 12 0 14 2 19 5 13 2 -7 2 -19 0 -25z m160 0
c-3 -7 -5 -2 -5 12 0 14 2 19 5 13 2 -7 2 -19 0 -25z m80 0 c-3 -7 -5 -2 -5
12 0 14 2 19 5 13 2 -7 2 -19 0 -25z m203 -2 c0 -2 -10 -2 -22 -1 -12 1 -22 9
-24 18 -2 15 0 15 22 0 13 -8 24 -16 24 -17z m32 -8 c-6 -6 -7 0 -4 19 5 21 7
23 10 9 2 -10 0 -22 -6 -28z m252 3 c-1 -46 -11 -48 -11 -1 0 21 3 38 6 36 3
-2 6 -18 5 -35z m433 17 c-3 -8 -6 -5 -6 6 -1 11 2 17 5 13 3 -3 4 -12 1 -19z
m615 -12 c2 -19 0 -32 -4 -30 -8 5 -12 64 -4 64 2 0 6 -15 8 -34z m-1120 -8
c-8 -8 -9 -4 -5 13 4 13 8 18 11 10 2 -7 -1 -18 -6 -23z m1276 -15 c-6 -7 -14
-11 -17 -7 -3 4 0 9 6 11 10 3 10 10 2 26 -10 21 -9 21 5 3 12 -15 13 -23 4
-33z m206 26 c-3 -5 -10 -7 -15 -3 -5 3 -7 10 -3 15 3 5 10 7 15 3 5 -3 7 -10
3 -15z m-1456 -18 c-1 -16 -5 -28 -9 -26 -6 5 0 55 7 55 3 0 3 -13 2 -29z
m1188 2 c-10 -10 -19 5 -10 18 6 11 8 11 12 0 2 -7 1 -15 -2 -18z m454 17 c0
-5 -5 -10 -11 -10 -5 0 -7 5 -4 10 3 6 8 10 11 10 2 0 4 -4 4 -10z m-2756 -16
c6 -15 4 -15 -11 -3 -10 7 -20 15 -22 16 -2 2 3 3 11 3 9 0 19 -7 22 -16z
m-976 -19 c6 -14 7 -27 2 -30 -5 -3 -10 5 -12 17 -2 13 -9 22 -16 20 -8 -1
-11 2 -7 8 10 16 21 12 33 -15z m1026 -14 c-8 -9 -22 12 -17 26 6 15 7 14 13
-3 4 -10 6 -21 4 -23z m-1100 13 c3 -8 2 -12 -4 -9 -6 3 -10 10 -10 16 0 14 7
11 14 -7z m2730 0 c3 -8 2 -12 -4 -9 -6 3 -10 10 -10 16 0 14 7 11 14 -7z
m816 6 c0 -5 -2 -10 -4 -10 -3 0 -8 5 -11 10 -3 6 -1 10 4 10 6 0 11 -4 11
-10z m-3523 -22 c-3 -8 -6 -5 -6 6 -1 11 2 17 5 13 3 -3 4 -12 1 -19z m848 12
c-3 -5 -14 -10 -23 -10 -15 0 -15 2 -2 10 20 13 33 13 25 0z m165 0 c0 -5 -12
-10 -27 -9 l-28 1 25 8 c14 4 26 8 28 9 1 1 2 -3 2 -9z m110 4 c0 -8 -19 -13
-24 -6 -3 5 1 9 9 9 8 0 15 -2 15 -3z m795 -4 c-3 -5 -14 -10 -23 -10 -15 0
-15 2 -2 10 20 13 33 13 25 0z m1580 0 c3 -5 1 -10 -4 -10 -6 0 -11 5 -11 10
0 6 2 10 4 10 3 0 8 -4 11 -10z m-3465 -20 c0 -5 -5 -10 -11 -10 -5 0 -7 5 -4
10 3 6 8 10 11 10 2 0 4 -4 4 -10z m147 -77 c-3 -10 -5 -4 -5 12 0 17 2 24 5
18 2 -7 2 -21 0 -30z m2130 0 c-3 -10 -5 -4 -5 12 0 17 2 24 5 18 2 -7 2 -21
0 -30z m540 0 c-3 -10 -5 -4 -5 12 0 17 2 24 5 18 2 -7 2 -21 0 -30z m-3130
-15 c-3 -7 -5 -2 -5 12 0 14 2 19 5 13 2 -7 2 -19 0 -25z m810 0 c-3 -7 -5 -2
-5 12 0 14 2 19 5 13 2 -7 2 -19 0 -25z m1920 0 c-3 -7 -5 -2 -5 12 0 14 2 19
5 13 2 -7 2 -19 0 -25z m-2300 -40 c-3 -8 -6 -5 -6 6 -1 11 2 17 5 13 3 -3 4
-12 1 -19z m2130 0 c-3 -8 -6 -5 -6 6 -1 11 2 17 5 13 3 -3 4 -12 1 -19z m540
0 c-3 -8 -6 -5 -6 6 -1 11 2 17 5 13 3 -3 4 -12 1 -19z m-3070 -10 c-3 -8 -6
-5 -6 6 -1 11 2 17 5 13 3 -3 4 -12 1 -19z m233 14 c0 -5 -7 -9 -15 -9 -8 0
-15 4 -15 9 0 4 7 8 15 8 8 0 15 -4 15 -8z m577 -14 c-3 -8 -6 -5 -6 6 -1 11
2 17 5 13 3 -3 4 -12 1 -19z m1920 0 c-3 -8 -6 -5 -6 6 -1 11 2 17 5 13 3 -3
4 -12 1 -19z m223 14 c0 -5 -7 -9 -15 -9 -8 0 -15 4 -15 9 0 4 7 8 15 8 8 0
15 -4 15 -8z m-1780 -10 c-10 -5 -15 -22 -15 -52 0 -30 5 -47 15 -52 11 -6 11
-7 -4 -5 -16 2 -19 10 -18 55 0 28 1 54 1 57 1 3 9 5 19 4 14 0 14 -2 2 -7z
m33 -52 c0 -28 -3 -53 -5 -56 -3 -3 -6 22 -6 56 0 34 3 59 6 56 2 -3 5 -28 5
-56z m457 52 c-10 -5 -15 -22 -15 -52 0 -30 5 -47 15 -52 11 -6 11 -7 -4 -5
-16 2 -19 10 -18 55 0 28 1 54 1 57 1 3 9 5 19 4 14 0 14 -2 2 -7z m33 -52 c0
-28 -3 -53 -5 -56 -3 -3 -6 22 -6 56 0 34 3 59 6 56 2 -3 5 -28 5 -56z m457
50 c0 -5 -8 -10 -17 -10 -15 0 -16 2 -3 10 19 12 20 12 20 0z m17 -72 c-2 -18
-4 -6 -4 27 0 33 2 48 4 33 2 -15 2 -42 0 -60z m-1030 10 c-3 -7 -5 -2 -5 12
0 14 2 19 5 13 2 -7 2 -19 0 -25z m80 0 c-3 -7 -5 -2 -5 12 0 14 2 19 5 13 2
-7 2 -19 0 -25z m410 0 c-3 -7 -5 -2 -5 12 0 14 2 19 5 13 2 -7 2 -19 0 -25z
m80 0 c-3 -7 -5 -2 -5 12 0 14 2 19 5 13 2 -7 2 -19 0 -25z m-1509 -35 c-6 -7
-14 -11 -17 -7 -3 4 0 9 6 11 10 3 10 10 2 26 -10 21 -9 21 5 3 12 -15 13 -23
4 -33z m2720 0 c-6 -7 -14 -11 -17 -7 -3 4 0 9 6 11 10 3 10 10 2 26 -10 21
-9 21 5 3 12 -15 13 -23 4 -33z m-2782 10 c-10 -10 -19 5 -10 18 6 11 8 11 12
0 2 -7 1 -15 -2 -18z m2720 0 c-10 -10 -19 5 -10 18 6 11 8 11 12 0 2 -7 1
-15 -2 -18z m-2578 -18 c6 -14 7 -27 2 -30 -5 -3 -10 5 -12 17 -2 13 -9 22
-16 20 -8 -1 -11 2 -7 8 10 16 21 12 33 -15z m-51 -17 c-3 -8 -6 -5 -6 6 -1
11 2 17 5 13 3 -3 4 -12 1 -19z m33 -8 c0 -5 -5 -10 -11 -10 -5 0 -7 5 -4 10
3 6 8 10 11 10 2 0 4 -4 4 -10z m-210 -16 c0 -8 -19 -13 -24 -6 -3 5 1 9 9 9
8 0 15 -2 15 -3z m304 -2 c3 -5 -1 -9 -9 -9 -8 0 -12 4 -9 9 3 4 7 8 9 8 2 0
6 -4 9 -8z m506 2 c0 -8 -19 -13 -24 -6 -3 5 1 9 9 9 8 0 15 -2 15 -3z m1624
-2 c3 -5 -1 -9 -9 -9 -8 0 -12 4 -9 9 3 4 7 8 9 8 2 0 6 -4 9 -8z m296 2 c0
-8 -19 -13 -24 -6 -3 5 1 9 9 9 8 0 15 -2 15 -3z m244 -2 c3 -5 -1 -9 -9 -9
-8 0 -12 4 -9 9 3 4 7 8 9 8 2 0 6 -4 9 -8z"/>
</g>
</svg>
