<?xml version="1.0" standalone="no"?>
<!DOCTYPE svg PUBLIC "-//W3C//DTD SVG 20010904//EN"
 "http://www.w3.org/TR/2001/REC-SVG-20010904/DTD/svg10.dtd">
<svg version="1.0" xmlns="http://www.w3.org/2000/svg"
 width="445.000000pt" height="187.000000pt" viewBox="0 0 445.000000 187.000000"
 preserveAspectRatio="xMidYMid meet">

<g transform="translate(0.000000,187.000000) scale(0.100000,-0.100000)"
fill="#000000" stroke="none">
<path d="M0 935 l0 -935 38 0 c46 0 56 8 39 29 -11 14 -10 14 5 2 10 -7 15
-17 12 -22 -3 -5 910 -9 2175 -9 l2181 0 0 190 c0 141 -3 190 -12 190 -9 0 -9
3 0 12 17 17 17 1048 0 1048 -9 0 -9 3 0 12 9 9 12 70 12 215 l0 203 -2225 0
-2225 0 0 -935z m80 921 c0 -2 -8 -10 -17 -17 -16 -13 -17 -12 -4 4 13 16 21
21 21 13z m20 -10 c0 -2 -8 -10 -17 -17 -16 -13 -17 -12 -4 4 13 16 21 21 21
13z m454 -37 c-3 -5 -10 -7 -15 -3 -5 3 -7 10 -3 15 3 5 10 7 15 3 5 -3 7 -10
3 -15z m2270 0 c-3 -5 -10 -7 -15 -3 -5 3 -7 10 -3 15 3 5 10 7 15 3 5 -3 7
-10 3 -15z m540 0 c-3 -5 -10 -7 -15 -3 -5 3 -7 10 -3 15 3 5 10 7 15 3 5 -3
7 -10 3 -15z m-3297 -612 c-1 -111 -2 -20 -2 203 0 223 1 314 2 202 2 -111 2
-293 0 -405z m507 595 c3 -5 -1 -9 -9 -9 -8 0 -12 4 -9 9 3 4 7 8 9 8 2 0 6
-4 9 -8z m2270 0 c3 -5 -1 -9 -9 -9 -8 0 -12 4 -9 9 3 4 7 8 9 8 2 0 6 -4 9
-8z m540 0 c3 -5 -1 -9 -9 -9 -8 0 -12 4 -9 9 3 4 7 8 9 8 2 0 6 -4 9 -8z
m-1944 -12 c0 -5 -8 -10 -17 -10 -15 0 -16 2 -3 10 19 12 20 12 20 0z m17 -72
c-2 -18 -4 -6 -4 27 0 33 2 48 4 33 2 -15 2 -42 0 -60z m793 74 c-10 -5 -15
-22 -15 -52 0 -30 5 -47 15 -52 11 -6 11 -7 -4 -5 -16 2 -19 10 -18 55 0 28 1
54 1 57 1 3 9 5 19 4 14 0 14 -2 2 -7z m33 -52 c0 -28 -3 -53 -5 -56 -3 -3 -6
22 -6 56 0 34 3 59 6 56 2 -3 5 -28 5 -56z m457 52 c-10 -5 -15 -22 -15 -52 0
-30 5 -47 15 -52 11 -6 11 -7 -4 -5 -16 2 -19 10 -18 55 0 28 1 54 1 57 1 3 9
5 19 4 14 0 14 -2 2 -7z m33 -52 c0 -28 -3 -53 -5 -56 -3 -3 -6 22 -6 56 0 34
3 59 6 56 2 -3 5 -28 5 -56z m-556 -12 c-3 -7 -5 -2 -5 12 0 14 2 19 5 13 2
-7 2 -19 0 -25z m80 0 c-3 -7 -5 -2 -5 12 0 14 2 19 5 13 2 -7 2 -19 0 -25z
m410 0 c-3 -7 -5 -2 -5 12 0 14 2 19 5 13 2 -7 2 -19 0 -25z m80 0 c-3 -7 -5
-2 -5 12 0 14 2 19 5 13 2 -7 2 -19 0 -25z m-2319 -24 c8 5 10 2 6 -8 -5 -14
-9 -13 -29 2 -13 9 -21 21 -18 25 3 5 11 0 17 -9 7 -9 18 -14 24 -10z m2832
16 c0 -5 -5 -10 -11 -10 -5 0 -7 5 -4 10 3 6 8 10 11 10 2 0 4 -4 4 -10z
m-2683 -52 c-3 -8 -6 -5 -6 6 -1 11 2 17 5 13 3 -3 4 -12 1 -19z m2270 0 c-3
-8 -6 -5 -6 6 -1 11 2 17 5 13 3 -3 4 -12 1 -19z m540 0 c-3 -8 -6 -5 -6 6 -1
11 2 17 5 13 3 -3 4 -12 1 -19z m-2947 -8 c0 -5 -5 -10 -11 -10 -5 0 -7 5 -4
10 3 6 8 10 11 10 2 0 4 -4 4 -10z m117 -12 c-3 -8 -6 -5 -6 6 -1 11 2 17 5
13 3 -3 4 -12 1 -19z m2270 0 c-3 -8 -6 -5 -6 6 -1 11 2 17 5 13 3 -3 4 -12 1
-19z m540 0 c-3 -8 -6 -5 -6 6 -1 11 2 17 5 13 3 -3 4 -12 1 -19z m-3220 -55
c-3 -10 -5 -4 -5 12 0 17 2 24 5 18 2 -7 2 -21 0 -30z m790 0 c-3 -10 -5 -4
-5 12 0 17 2 24 5 18 2 -7 2 -21 0 -30z m2060 0 c-3 -10 -5 -4 -5 12 0 17 2
24 5 18 2 -7 2 -21 0 -30z m-2410 -10 c-3 -10 -5 -4 -5 12 0 17 2 24 5 18 2
-7 2 -21 0 -30z m2270 0 c-3 -10 -5 -4 -5 12 0 17 2 24 5 18 2 -7 2 -21 0 -30z
m540 0 c-3 -10 -5 -4 -5 12 0 17 2 24 5 18 2 -7 2 -21 0 -30z m-3230 -185 c-2
-35 -3 -9 -3 57 0 66 1 94 3 63 2 -32 2 -86 0 -120z m790 0 c-2 -35 -3 -9 -3
57 0 66 1 94 3 63 2 -32 2 -86 0 -120z m2060 0 c-2 -35 -3 -9 -3 57 0 66 1 94
3 63 2 -32 2 -86 0 -120z m-2450 10 c-2 -29 -3 -8 -3 47 0 55 1 79 3 53 2 -26
2 -71 0 -100z m2270 0 c-2 -29 -3 -8 -3 47 0 55 1 79 3 53 2 -26 2 -71 0 -100z
m540 0 c-2 -29 -3 -8 -3 47 0 55 1 79 3 53 2 -26 2 -71 0 -100z m412 133 c0
-3 -4 -15 -8 -26 -7 -18 -8 -17 -13 6 -3 17 0 26 9 26 7 0 13 -3 12 -6z m138
-13 c-3 -8 -6 -5 -6 6 -1 11 2 17 5 13 3 -3 4 -12 1 -19z m-3600 -10 c-3 -8
-6 -5 -6 6 -1 11 2 17 5 13 3 -3 4 -12 1 -19z m2850 0 c-3 -8 -6 -5 -6 6 -1
11 2 17 5 13 3 -3 4 -12 1 -19z m723 -32 c-6 -26 -8 -51 -5 -57 3 -5 -1 -6 -9
-3 -8 3 -13 11 -11 17 2 7 9 32 15 56 15 57 24 46 10 -13z m91 16 c-6 -2 -18
-17 -27 -33 -15 -30 -34 -31 -34 -1 0 12 2 14 8 4 6 -8 16 1 32 30 20 35 25
39 28 23 3 -10 -1 -21 -7 -23z m239 28 c0 -5 -2 -10 -4 -10 -3 0 -8 5 -11 10
-3 6 -1 10 4 10 6 0 11 -4 11 -10z m-3930 -54 c-6 -26 -8 -51 -5 -57 3 -5 -1
-6 -9 -3 -8 3 -13 11 -11 17 2 7 9 32 15 56 15 57 24 46 10 -13z m91 16 c-6
-2 -18 -17 -27 -33 -15 -30 -34 -31 -34 -1 0 12 2 14 8 4 6 -8 16 1 32 30 20
35 25 39 28 23 3 -10 -1 -21 -7 -23z m1009 30 c-10 -5 -15 -22 -15 -52 0 -30
5 -47 15 -52 11 -6 11 -7 -4 -5 -16 2 -19 10 -18 55 0 28 1 54 1 57 1 3 9 5
19 4 14 0 14 -2 2 -7z m33 -52 c0 -28 -3 -53 -5 -56 -3 -3 -6 22 -6 56 0 34 3
59 6 56 2 -3 5 -28 5 -56z m777 50 c0 -5 -8 -10 -17 -10 -15 0 -16 2 -3 10 19
12 20 12 20 0z m17 -72 c-2 -18 -4 -6 -4 27 0 33 2 48 4 33 2 -15 2 -42 0 -60z
m473 74 c-10 -5 -15 -22 -15 -52 0 -30 5 -47 15 -52 11 -6 11 -7 -4 -5 -16 2
-19 10 -18 55 0 28 1 54 1 57 1 3 9 5 19 4 14 0 14 -2 2 -7z m33 -52 c0 -28
-3 -53 -5 -56 -3 -3 -6 22 -6 56 0 34 3 59 6 56 2 -3 5 -28 5 -56z m417 6 c-6
-26 -8 -51 -5 -57 3 -5 -1 -6 -9 -3 -8 3 -13 11 -11 17 2 7 9 32 15 56 15 57
24 46 10 -13z m91 16 c-6 -2 -18 -17 -27 -33 -15 -30 -34 -31 -34 -1 0 12 2
14 8 4 6 -8 16 1 32 30 20 35 25 39 28 23 3 -10 -1 -21 -7 -23z m502 -65 c8
-6 7 -7 -3 -4 -10 2 -15 17 -16 43 -1 37 -1 38 3 4 3 -19 10 -39 16 -43z m174
51 c-3 -8 -6 -5 -6 6 -1 11 2 17 5 13 3 -3 4 -12 1 -19z m233 -6 c0 -15 -2
-15 -10 -2 -13 20 -13 33 0 25 6 -3 10 -14 10 -23z m-3833 -4 c-3 -8 -6 -5 -6
6 -1 11 2 17 5 13 3 -3 4 -12 1 -19z m1050 -10 c-3 -7 -5 -2 -5 12 0 14 2 19
5 13 2 -7 2 -19 0 -25z m80 0 c-3 -7 -5 -2 -5 12 0 14 2 19 5 13 2 -7 2 -19 0
-25z m1220 0 c-3 -7 -5 -2 -5 12 0 14 2 19 5 13 2 -7 2 -19 0 -25z m80 0 c-3
-7 -5 -2 -5 12 0 14 2 19 5 13 2 -7 2 -19 0 -25z m420 10 c-3 -8 -6 -5 -6 6
-1 11 2 17 5 13 3 -3 4 -12 1 -19z m615 -12 c2 -19 0 -32 -4 -30 -8 5 -12 64
-4 64 2 0 6 -15 8 -34z m-3329 -23 c-4 -10 -9 -11 -19 -2 -18 15 -18 15 5 15
11 0 17 -5 14 -13z m3551 1 c3 -8 2 -12 -4 -9 -6 3 -10 10 -10 16 0 14 7 11
14 -7z m220 8 c3 -5 -1 -9 -9 -9 -8 0 -12 4 -9 9 3 4 7 8 9 8 2 0 6 -4 9 -8z
m-3820 -18 c3 -8 2 -12 -4 -9 -6 3 -10 10 -10 16 0 14 7 11 14 -7z m2850 0 c3
-8 2 -12 -4 -9 -6 3 -10 10 -10 16 0 14 7 11 14 -7z m-2794 -24 c0 -5 -5 -10
-11 -10 -5 0 -7 5 -4 10 3 6 8 10 11 10 2 0 4 -4 4 -10z m127 -77 c-3 -10 -5
-4 -5 12 0 17 2 24 5 18 2 -7 2 -21 0 -30z m2270 0 c-3 -10 -5 -4 -5 12 0 17
2 24 5 18 2 -7 2 -21 0 -30z m540 0 c-3 -10 -5 -4 -5 12 0 17 2 24 5 18 2 -7
2 -21 0 -30z m-3250 -15 c-3 -7 -5 -2 -5 12 0 14 2 19 5 13 2 -7 2 -19 0 -25z
m790 0 c-3 -7 -5 -2 -5 12 0 14 2 19 5 13 2 -7 2 -19 0 -25z m2060 0 c-3 -7
-5 -2 -5 12 0 14 2 19 5 13 2 -7 2 -19 0 -25z m-2440 -40 c-3 -8 -6 -5 -6 6
-1 11 2 17 5 13 3 -3 4 -12 1 -19z m2270 0 c-3 -8 -6 -5 -6 6 -1 11 2 17 5 13
3 -3 4 -12 1 -19z m540 0 c-3 -8 -6 -5 -6 6 -1 11 2 17 5 13 3 -3 4 -12 1 -19z
m-3190 -10 c-3 -8 -6 -5 -6 6 -1 11 2 17 5 13 3 -3 4 -12 1 -19z m233 14 c0
-5 -7 -9 -15 -9 -8 0 -15 4 -15 9 0 4 7 8 15 8 8 0 15 -4 15 -8z m557 -14 c-3
-8 -6 -5 -6 6 -1 11 2 17 5 13 3 -3 4 -12 1 -19z m2060 0 c-3 -8 -6 -5 -6 6
-1 11 2 17 5 13 3 -3 4 -12 1 -19z m233 14 c0 -5 -7 -9 -15 -9 -8 0 -15 4 -15
9 0 4 7 8 15 8 8 0 15 -4 15 -8z m-2040 -10 c-10 -5 -15 -22 -15 -52 0 -30 5
-47 15 -52 11 -6 11 -7 -4 -5 -16 2 -19 10 -18 55 0 28 1 54 1 57 1 3 9 5 19
4 14 0 14 -2 2 -7z m33 -52 c0 -28 -3 -53 -5 -56 -3 -3 -6 22 -6 56 0 34 3 59
6 56 2 -3 5 -28 5 -56z m111 20 c12 0 -14 -20 -26 -20 -5 0 -8 15 -7 33 0 30
1 31 11 10 6 -13 16 -23 22 -23z m30 28 c-3 -4 -11 -5 -19 -1 -21 7 -19 12 4
10 11 0 18 -5 15 -9z m43 -20 c-3 -7 -5 -2 -5 12 0 14 2 19 5 13 2 -7 2 -19 0
-25z m47 24 c3 -5 -1 -9 -9 -9 -8 0 -12 4 -9 9 3 4 7 8 9 8 2 0 6 -4 9 -8z
m60 -32 c12 0 -14 -20 -26 -20 -5 0 -8 15 -7 33 0 30 1 31 11 10 6 -13 16 -23
22 -23z m30 28 c-3 -4 -11 -5 -19 -1 -21 7 -19 12 4 10 11 0 18 -5 15 -9z
m156 8 c0 -2 -7 -6 -15 -10 -8 -3 -15 -1 -15 4 0 6 7 10 15 10 8 0 15 -2 15
-4z m230 -6 c0 -5 -8 -10 -17 -10 -15 0 -16 2 -3 10 19 12 20 12 20 0z m17
-72 c-2 -18 -4 -6 -4 27 0 33 2 48 4 33 2 -15 2 -42 0 -60z m127 42 c12 0 -14
-20 -26 -20 -5 0 -8 15 -7 33 0 30 1 31 11 10 6 -13 16 -23 22 -23z m30 28
c-3 -4 -11 -5 -19 -1 -21 7 -19 12 4 10 11 0 18 -5 15 -9z m43 -20 c-3 -7 -5
-2 -5 12 0 14 2 19 5 13 2 -7 2 -19 0 -25z m47 24 c3 -5 -1 -9 -9 -9 -8 0 -12
4 -9 9 3 4 7 8 9 8 2 0 6 -4 9 -8z m60 -32 c12 0 -14 -20 -26 -20 -5 0 -8 15
-7 33 0 30 1 31 11 10 6 -13 16 -23 22 -23z m30 28 c-3 -4 -11 -5 -19 -1 -21
7 -19 12 4 10 11 0 18 -5 15 -9z m146 4 c-10 -5 -15 -22 -15 -52 0 -30 5 -47
15 -52 11 -6 11 -7 -4 -5 -16 2 -19 10 -18 55 0 28 1 54 1 57 1 3 9 5 19 4 14
0 14 -2 2 -7z m33 -52 c0 -28 -3 -53 -5 -56 -3 -3 -6 22 -6 56 0 34 3 59 6 56
2 -3 5 -28 5 -56z m207 52 c-10 -5 -15 -22 -15 -52 0 -30 5 -47 15 -52 11 -6
11 -7 -4 -5 -16 2 -19 10 -18 55 0 28 1 54 1 57 1 3 9 5 19 4 14 0 14 -2 2 -7z
m33 -52 c0 -28 -3 -53 -5 -56 -3 -3 -6 22 -6 56 0 34 3 59 6 56 2 -3 5 -28 5
-56z m-1113 1 c-25 -36 -39 -42 -18 -8 8 12 18 28 22 35 5 7 10 11 13 8 3 -3
-5 -19 -17 -35z m740 0 c-25 -36 -39 -42 -18 -8 8 12 18 28 22 35 5 7 10 11
13 8 3 -3 -5 -19 -17 -35z m-1173 -13 c-3 -7 -5 -2 -5 12 0 14 2 19 5 13 2 -7
2 -19 0 -25z m80 0 c-3 -7 -5 -2 -5 12 0 14 2 19 5 13 2 -7 2 -19 0 -25z
m1155 -10 c-6 -6 -7 0 -4 19 5 21 7 23 10 9 2 -10 0 -22 -6 -28z m85 10 c-3
-7 -5 -2 -5 12 0 14 2 19 5 13 2 -7 2 -19 0 -25z m160 0 c-3 -7 -5 -2 -5 12 0
14 2 19 5 13 2 -7 2 -19 0 -25z m80 0 c-3 -7 -5 -2 -5 12 0 14 2 19 5 13 2 -7
2 -19 0 -25z m-1279 -6 l-23 -25 23 6 c12 3 19 1 16 -4 -3 -5 -19 -8 -36 -7
l-30 2 24 20 c12 10 22 22 21 26 -1 4 5 7 13 7 10 0 8 -7 -8 -25z m740 0 l-23
-25 23 6 c12 3 19 1 16 -4 -3 -5 -19 -8 -36 -7 l-30 2 24 20 c12 10 22 22 21
26 -1 4 5 7 13 7 10 0 8 -7 -8 -25z m-1830 -29 c-6 -7 -14 -11 -17 -7 -3 4 0
9 6 11 10 3 10 10 2 26 -10 21 -9 21 5 3 12 -15 13 -23 4 -33z m2850 0 c-6 -7
-14 -11 -17 -7 -3 4 0 9 6 11 10 3 10 10 2 26 -10 21 -9 21 5 3 12 -15 13 -23
4 -33z m-2912 10 c-10 -10 -19 5 -10 18 6 11 8 11 12 0 2 -7 1 -15 -2 -18z
m2850 0 c-10 -10 -19 5 -10 18 6 11 8 11 12 0 2 -7 1 -15 -2 -18z m-1812 -22
c-8 -9 -22 12 -17 26 6 15 7 14 13 -3 4 -10 6 -21 4 -23z m180 0 c-8 -9 -22
12 -17 26 6 15 7 14 13 -3 4 -10 6 -21 4 -23z m173 7 c-3 -7 -5 -2 -5 12 0 14
2 19 5 13 2 -7 2 -19 0 -25z m387 -7 c-8 -9 -22 12 -17 26 6 15 7 14 13 -3 4
-10 6 -21 4 -23z m180 0 c-8 -9 -22 12 -17 26 6 15 7 14 13 -3 4 -10 6 -21 4
-23z m-1841 12 c-4 -10 -9 -11 -19 -2 -18 15 -18 15 5 15 11 0 17 -5 14 -13z
m967 1 c0 -8 -19 -13 -24 -6 -3 5 1 9 9 9 8 0 15 -2 15 -3z m180 0 c0 -8 -19
-13 -24 -6 -3 5 1 9 9 9 8 0 15 -2 15 -3z m175 -3 c-9 -8 -36 -10 -30 -2 2 4
11 8 20 8 8 0 13 -3 10 -6z m385 3 c0 -8 -19 -13 -24 -6 -3 5 1 9 9 9 8 0 15
-2 15 -3z m180 0 c0 -8 -19 -13 -24 -6 -3 5 1 9 9 9 8 0 15 -2 15 -3z m-1880
-34 c0 -5 -5 -10 -11 -10 -5 0 -7 5 -4 10 3 6 8 10 11 10 2 0 4 -4 4 -10z
m-210 -16 c0 -8 -19 -13 -24 -6 -3 5 1 9 9 9 8 0 15 -2 15 -3z m284 -2 c3 -5
-1 -9 -9 -9 -8 0 -12 4 -9 9 3 4 7 8 9 8 2 0 6 -4 9 -8z m506 2 c0 -8 -19 -13
-24 -6 -3 5 1 9 9 9 8 0 15 -2 15 -3z m1764 -2 c3 -5 -1 -9 -9 -9 -8 0 -12 4
-9 9 3 4 7 8 9 8 2 0 6 -4 9 -8z m296 2 c0 -8 -19 -13 -24 -6 -3 5 1 9 9 9 8
0 15 -2 15 -3z m244 -2 c3 -5 -1 -9 -9 -9 -8 0 -12 4 -9 9 3 4 7 8 9 8 2 0 6
-4 9 -8z m-3324 -157 c-10 -12 -10 -18 1 -32 12 -17 12 -17 -6 -1 -15 14 -16
20 -5 32 7 9 15 16 17 16 3 0 0 -7 -7 -15z m-3 -87 c-3 -8 -6 -5 -6 6 -1 11 2
17 5 13 3 -3 4 -12 1 -19z m30 -601 c-1 -111 -2 -20 -2 203 0 223 1 314 2 202
2 -111 2 -293 0 -405z m487 492 c-3 -5 -10 -7 -15 -3 -5 3 -7 10 -3 15 3 5 10
7 15 3 5 -3 7 -10 3 -15z m2270 0 c-3 -5 -10 -7 -15 -3 -5 3 -7 10 -3 15 3 5
10 7 15 3 5 -3 7 -10 3 -15z m540 0 c-3 -5 -10 -7 -15 -3 -5 3 -7 10 -3 15 3
5 10 7 15 3 5 -3 7 -10 3 -15z m-2790 -17 c3 -5 -1 -9 -9 -9 -8 0 -12 4 -9 9
3 4 7 8 9 8 2 0 6 -4 9 -8z m2270 0 c3 -5 -1 -9 -9 -9 -8 0 -12 4 -9 9 3 4 7
8 9 8 2 0 6 -4 9 -8z m540 0 c3 -5 -1 -9 -9 -9 -8 0 -12 4 -9 9 3 4 7 8 9 8 2
0 6 -4 9 -8z m-1944 -12 c0 -5 -8 -10 -17 -10 -15 0 -16 2 -3 10 19 12 20 12
20 0z m17 -72 c-2 -18 -4 -6 -4 27 0 33 2 48 4 33 2 -15 2 -42 0 -60z m793 74
c-10 -5 -15 -22 -15 -52 0 -30 5 -47 15 -52 11 -6 11 -7 -4 -5 -16 2 -19 10
-18 55 0 28 1 54 1 57 1 3 9 5 19 4 14 0 14 -2 2 -7z m33 -52 c0 -28 -3 -53
-5 -56 -3 -3 -6 22 -6 56 0 34 3 59 6 56 2 -3 5 -28 5 -56z m457 52 c-10 -5
-15 -22 -15 -52 0 -30 5 -47 15 -52 11 -6 11 -7 -4 -5 -16 2 -19 10 -18 55 0
28 1 54 1 57 1 3 9 5 19 4 14 0 14 -2 2 -7z m33 -52 c0 -28 -3 -53 -5 -56 -3
-3 -6 22 -6 56 0 34 3 59 6 56 2 -3 5 -28 5 -56z m-556 -12 c-3 -7 -5 -2 -5
12 0 14 2 19 5 13 2 -7 2 -19 0 -25z m80 0 c-3 -7 -5 -2 -5 12 0 14 2 19 5 13
2 -7 2 -19 0 -25z m410 0 c-3 -7 -5 -2 -5 12 0 14 2 19 5 13 2 -7 2 -19 0 -25z
m80 0 c-3 -7 -5 -2 -5 12 0 14 2 19 5 13 2 -7 2 -19 0 -25z m-2319 -24 c8 5
10 2 6 -8 -5 -14 -9 -13 -29 2 -13 9 -21 21 -18 25 3 5 11 0 17 -9 7 -9 18
-14 24 -10z m2832 16 c0 -5 -5 -10 -11 -10 -5 0 -7 5 -4 10 3 6 8 10 11 10 2
0 4 -4 4 -10z m-2683 -52 c-3 -8 -6 -5 -6 6 -1 11 2 17 5 13 3 -3 4 -12 1 -19z
m2270 0 c-3 -8 -6 -5 -6 6 -1 11 2 17 5 13 3 -3 4 -12 1 -19z m540 0 c-3 -8
-6 -5 -6 6 -1 11 2 17 5 13 3 -3 4 -12 1 -19z m-2947 -8 c0 -5 -5 -10 -11 -10
-5 0 -7 5 -4 10 3 6 8 10 11 10 2 0 4 -4 4 -10z m117 -12 c-3 -8 -6 -5 -6 6
-1 11 2 17 5 13 3 -3 4 -12 1 -19z m2270 0 c-3 -8 -6 -5 -6 6 -1 11 2 17 5 13
3 -3 4 -12 1 -19z m540 0 c-3 -8 -6 -5 -6 6 -1 11 2 17 5 13 3 -3 4 -12 1 -19z
m-3220 -55 c-3 -10 -5 -4 -5 12 0 17 2 24 5 18 2 -7 2 -21 0 -30z m790 0 c-3
-10 -5 -4 -5 12 0 17 2 24 5 18 2 -7 2 -21 0 -30z m2060 0 c-3 -10 -5 -4 -5
12 0 17 2 24 5 18 2 -7 2 -21 0 -30z m-2410 -10 c-3 -10 -5 -4 -5 12 0 17 2
24 5 18 2 -7 2 -21 0 -30z m2270 0 c-3 -10 -5 -4 -5 12 0 17 2 24 5 18 2 -7 2
-21 0 -30z m540 0 c-3 -10 -5 -4 -5 12 0 17 2 24 5 18 2 -7 2 -21 0 -30z
m-3230 -185 c-2 -35 -3 -9 -3 57 0 66 1 94 3 63 2 -32 2 -86 0 -120z m790 0
c-2 -35 -3 -9 -3 57 0 66 1 94 3 63 2 -32 2 -86 0 -120z m2060 0 c-2 -35 -3
-9 -3 57 0 66 1 94 3 63 2 -32 2 -86 0 -120z m-2450 10 c-2 -29 -3 -8 -3 47 0
55 1 79 3 53 2 -26 2 -71 0 -100z m2270 0 c-2 -29 -3 -8 -3 47 0 55 1 79 3 53
2 -26 2 -71 0 -100z m540 0 c-2 -29 -3 -8 -3 47 0 55 1 79 3 53 2 -26 2 -71 0
-100z m412 133 c0 -3 -4 -15 -8 -26 -7 -18 -8 -17 -13 6 -3 17 0 26 9 26 7 0
13 -3 12 -6z m138 -13 c-3 -8 -6 -5 -6 6 -1 11 2 17 5 13 3 -3 4 -12 1 -19z
m-3600 -10 c-3 -8 -6 -5 -6 6 -1 11 2 17 5 13 3 -3 4 -12 1 -19z m2850 0 c-3
-8 -6 -5 -6 6 -1 11 2 17 5 13 3 -3 4 -12 1 -19z m723 -32 c-6 -26 -8 -51 -5
-57 3 -5 -1 -6 -9 -3 -8 3 -13 11 -11 17 2 7 9 32 15 56 15 57 24 46 10 -13z
m91 16 c-6 -2 -18 -17 -27 -33 -15 -30 -34 -31 -34 -1 0 12 2 14 8 4 6 -8 16
1 32 30 20 35 25 39 28 23 3 -10 -1 -21 -7 -23z m-3691 -26 c-6 -26 -8 -51 -5
-57 3 -5 -1 -6 -9 -3 -8 3 -13 11 -11 17 2 7 9 32 15 56 15 57 24 46 10 -13z
m91 16 c-6 -2 -18 -17 -27 -33 -15 -30 -34 -31 -34 -1 0 12 2 14 8 4 6 -8 16
1 32 30 20 35 25 39 28 23 3 -10 -1 -21 -7 -23z m1009 30 c-10 -5 -15 -22 -15
-52 0 -30 5 -47 15 -52 11 -6 11 -7 -4 -5 -16 2 -19 10 -18 55 0 28 1 54 1 57
1 3 9 5 19 4 14 0 14 -2 2 -7z m33 -52 c0 -28 -3 -53 -5 -56 -3 -3 -6 22 -6
56 0 34 3 59 6 56 2 -3 5 -28 5 -56z m777 50 c0 -5 -8 -10 -17 -10 -15 0 -16
2 -3 10 19 12 20 12 20 0z m17 -72 c-2 -18 -4 -6 -4 27 0 33 2 48 4 33 2 -15
2 -42 0 -60z m473 74 c-10 -5 -15 -22 -15 -52 0 -30 5 -47 15 -52 11 -6 11 -7
-4 -5 -16 2 -19 10 -18 55 0 28 1 54 1 57 1 3 9 5 19 4 14 0 14 -2 2 -7z m33
-52 c0 -28 -3 -53 -5 -56 -3 -3 -6 22 -6 56 0 34 3 59 6 56 2 -3 5 -28 5 -56z
m417 6 c-6 -26 -8 -51 -5 -57 3 -5 -1 -6 -9 -3 -8 3 -13 11 -11 17 2 7 9 32
15 56 15 57 24 46 10 -13z m91 16 c-6 -2 -18 -17 -27 -33 -15 -30 -34 -31 -34
-1 0 12 2 14 8 4 6 -8 16 1 32 30 20 35 25 39 28 23 3 -10 -1 -21 -7 -23z
m889 24 c0 -3 -4 -8 -10 -11 -5 -3 -10 -1 -10 4 0 6 5 11 10 11 6 0 10 -2 10
-4z m-387 -89 c8 -6 7 -7 -3 -4 -10 2 -15 17 -16 43 -1 37 -1 38 3 4 3 -19 10
-39 16 -43z m174 51 c-3 -8 -6 -5 -6 6 -1 11 2 17 5 13 3 -3 4 -12 1 -19z
m-3600 -10 c-3 -8 -6 -5 -6 6 -1 11 2 17 5 13 3 -3 4 -12 1 -19z m1050 -10
c-3 -7 -5 -2 -5 12 0 14 2 19 5 13 2 -7 2 -19 0 -25z m80 0 c-3 -7 -5 -2 -5
12 0 14 2 19 5 13 2 -7 2 -19 0 -25z m1220 0 c-3 -7 -5 -2 -5 12 0 14 2 19 5
13 2 -7 2 -19 0 -25z m80 0 c-3 -7 -5 -2 -5 12 0 14 2 19 5 13 2 -7 2 -19 0
-25z m420 10 c-3 -8 -6 -5 -6 6 -1 11 2 17 5 13 3 -3 4 -12 1 -19z m615 -12
c2 -19 0 -32 -4 -30 -8 5 -12 64 -4 64 2 0 6 -15 8 -34z m442 3 c-3 -5 -10 -7
-15 -3 -5 3 -7 10 -3 15 3 5 10 7 15 3 5 -3 7 -10 3 -15z m-3771 -26 c-4 -10
-9 -11 -19 -2 -18 15 -18 15 5 15 11 0 17 -5 14 -13z m3551 1 c3 -8 2 -12 -4
-9 -6 3 -10 10 -10 16 0 14 7 11 14 -7z m-3600 -10 c3 -8 2 -12 -4 -9 -6 3
-10 10 -10 16 0 14 7 11 14 -7z m2850 0 c3 -8 2 -12 -4 -9 -6 3 -10 10 -10 16
0 14 7 11 14 -7z m896 6 c0 -5 -2 -10 -4 -10 -3 0 -8 5 -11 10 -3 6 -1 10 4
10 6 0 11 -4 11 -10z m-25 -10 c3 -5 1 -10 -4 -10 -6 0 -11 5 -11 10 0 6 2 10
4 10 3 0 8 -4 11 -10z m-3665 -20 c0 -5 -5 -10 -11 -10 -5 0 -7 5 -4 10 3 6 8
10 11 10 2 0 4 -4 4 -10z m127 -77 c-3 -10 -5 -4 -5 12 0 17 2 24 5 18 2 -7 2
-21 0 -30z m2270 0 c-3 -10 -5 -4 -5 12 0 17 2 24 5 18 2 -7 2 -21 0 -30z
m540 0 c-3 -10 -5 -4 -5 12 0 17 2 24 5 18 2 -7 2 -21 0 -30z m-3250 -15 c-3
-7 -5 -2 -5 12 0 14 2 19 5 13 2 -7 2 -19 0 -25z m790 0 c-3 -7 -5 -2 -5 12 0
14 2 19 5 13 2 -7 2 -19 0 -25z m2060 0 c-3 -7 -5 -2 -5 12 0 14 2 19 5 13 2
-7 2 -19 0 -25z m-2440 -40 c-3 -8 -6 -5 -6 6 -1 11 2 17 5 13 3 -3 4 -12 1
-19z m2270 0 c-3 -8 -6 -5 -6 6 -1 11 2 17 5 13 3 -3 4 -12 1 -19z m540 0 c-3
-8 -6 -5 -6 6 -1 11 2 17 5 13 3 -3 4 -12 1 -19z m-3190 -10 c-3 -8 -6 -5 -6
6 -1 11 2 17 5 13 3 -3 4 -12 1 -19z m233 14 c0 -5 -7 -9 -15 -9 -8 0 -15 4
-15 9 0 4 7 8 15 8 8 0 15 -4 15 -8z m557 -14 c-3 -8 -6 -5 -6 6 -1 11 2 17 5
13 3 -3 4 -12 1 -19z m2060 0 c-3 -8 -6 -5 -6 6 -1 11 2 17 5 13 3 -3 4 -12 1
-19z m233 14 c0 -5 -7 -9 -15 -9 -8 0 -15 4 -15 9 0 4 7 8 15 8 8 0 15 -4 15
-8z m-2040 -10 c-10 -5 -15 -22 -15 -52 0 -30 5 -47 15 -52 11 -6 11 -7 -4 -5
-16 2 -19 10 -18 55 0 28 1 54 1 57 1 3 9 5 19 4 14 0 14 -2 2 -7z m33 -52 c0
-28 -3 -53 -5 -56 -3 -3 -6 22 -6 56 0 34 3 59 6 56 2 -3 5 -28 5 -56z m97 44
c0 -8 -5 -12 -10 -9 -6 4 -8 11 -5 16 9 14 15 11 15 -7z m46 -9 c2 -14 -24
-30 -34 -20 -3 3 0 5 6 5 7 0 12 10 12 22 0 22 12 18 16 -7z m104 16 c0 -6 -5
-13 -12 -17 -6 -4 -8 -3 -4 4 4 7 -6 12 -26 15 -33 4 -33 4 5 5 20 1 37 -2 37
-7z m44 -31 c12 0 -14 -20 -26 -20 -5 0 -8 15 -7 33 0 30 1 31 11 10 6 -13 16
-23 22 -23z m30 28 c-3 -4 -11 -5 -19 -1 -21 7 -19 12 4 10 11 0 18 -5 15 -9z
m56 4 c-10 -5 -15 -22 -15 -52 0 -30 5 -47 15 -52 11 -6 11 -7 -4 -5 -16 2
-19 10 -18 55 0 28 1 54 1 57 1 3 9 5 19 4 14 0 14 -2 2 -7z m33 -52 c0 -28
-3 -53 -5 -56 -3 -3 -6 22 -6 56 0 34 3 59 6 56 2 -3 5 -28 5 -56z m297 50 c0
-5 -8 -10 -17 -10 -15 0 -16 2 -3 10 19 12 20 12 20 0z m17 -72 c-2 -18 -4 -6
-4 27 0 33 2 48 4 33 2 -15 2 -42 0 -60z m113 66 c0 -8 -5 -12 -10 -9 -6 4 -8
11 -5 16 9 14 15 11 15 -7z m46 -9 c2 -14 -24 -30 -34 -20 -3 3 0 5 6 5 7 0
12 10 12 22 0 22 12 18 16 -7z m104 16 c0 -6 -5 -13 -12 -17 -6 -4 -8 -3 -4 4
4 7 -6 12 -26 15 -33 4 -33 4 5 5 20 1 37 -2 37 -7z m44 -31 c12 0 -14 -20
-26 -20 -5 0 -8 15 -7 33 0 30 1 31 11 10 6 -13 16 -23 22 -23z m30 28 c-3 -4
-11 -5 -19 -1 -21 7 -19 12 4 10 11 0 18 -5 15 -9z m56 4 c-10 -5 -15 -22 -15
-52 0 -30 5 -47 15 -52 11 -6 11 -7 -4 -5 -16 2 -19 10 -18 55 0 28 1 54 1 57
1 3 9 5 19 4 14 0 14 -2 2 -7z m33 -52 c0 -28 -3 -53 -5 -56 -3 -3 -6 22 -6
56 0 34 3 59 6 56 2 -3 5 -28 5 -56z m67 56 c0 -2 -7 -6 -15 -10 -8 -3 -15 -1
-15 4 0 6 7 10 15 10 8 0 15 -2 15 -4z m230 -4 c-10 -5 -15 -22 -15 -52 0 -30
5 -47 15 -52 11 -6 11 -7 -4 -5 -16 2 -19 10 -18 55 0 28 1 54 1 57 1 3 9 5
19 4 14 0 14 -2 2 -7z m33 -52 c0 -28 -3 -53 -5 -56 -3 -3 -6 22 -6 56 0 34 3
59 6 56 2 -3 5 -28 5 -56z m-1023 0 c-23 -33 -41 -32 -39 3 1 22 1 22 7 -1 7
-23 7 -23 25 8 11 17 21 29 24 26 3 -3 -5 -19 -17 -36z m-523 -12 c-3 -7 -5
-2 -5 12 0 14 2 19 5 13 2 -7 2 -19 0 -25z m80 0 c-3 -7 -5 -2 -5 12 0 14 2
19 5 13 2 -7 2 -19 0 -25z m113 -2 c0 -2 -10 -2 -22 -1 -12 1 -22 9 -24 18 -2
15 0 15 22 0 13 -8 24 -16 24 -17z m92 27 c-6 -2 -9 -10 -6 -15 4 -7 2 -8 -5
-4 -13 9 -5 26 12 25 9 0 8 -2 -1 -6z m125 -25 c-3 -7 -5 -2 -5 12 0 14 2 19
5 13 2 -7 2 -19 0 -25z m523 -2 c0 -2 -10 -2 -22 -1 -12 1 -22 9 -24 18 -2 15
0 15 22 0 13 -8 24 -16 24 -17z m92 27 c-6 -2 -9 -10 -6 -15 4 -7 2 -8 -5 -4
-13 9 -5 26 12 25 9 0 8 -2 -1 -6z m125 -25 c-3 -7 -5 -2 -5 12 0 14 2 19 5
13 2 -7 2 -19 0 -25z m80 0 c-3 -7 -5 -2 -5 12 0 14 2 19 5 13 2 -7 2 -19 0
-25z m250 0 c-3 -7 -5 -2 -5 12 0 14 2 19 5 13 2 -7 2 -19 0 -25z m80 0 c-3
-7 -5 -2 -5 12 0 14 2 19 5 13 2 -7 2 -19 0 -25z m-2369 -35 c-6 -7 -14 -11
-17 -7 -3 4 0 9 6 11 10 3 10 10 2 26 -10 21 -9 21 5 3 12 -15 13 -23 4 -33z
m2850 0 c-6 -7 -14 -11 -17 -7 -3 4 0 9 6 11 10 3 10 10 2 26 -10 21 -9 21 5
3 12 -15 13 -23 4 -33z m-2912 10 c-10 -10 -19 5 -10 18 6 11 8 11 12 0 2 -7
1 -15 -2 -18z m2850 0 c-10 -10 -19 5 -10 18 6 11 8 11 12 0 2 -7 1 -15 -2
-18z m-1632 -22 c-8 -9 -22 12 -17 26 6 15 7 14 13 -3 4 -10 6 -21 4 -23z
m740 0 c-8 -9 -22 12 -17 26 6 15 7 14 13 -3 4 -10 6 -21 4 -23z m173 7 c-3
-7 -5 -2 -5 12 0 14 2 19 5 13 2 -7 2 -19 0 -25z m-2014 5 c-4 -10 -9 -11 -19
-2 -18 15 -18 15 5 15 11 0 17 -5 14 -13z m962 -3 c-3 -5 -14 -10 -23 -10 -15
0 -15 2 -2 10 20 13 33 13 25 0z m185 4 c0 -8 -19 -13 -24 -6 -3 5 1 9 9 9 8
0 15 -2 15 -3z m555 -4 c-3 -5 -14 -10 -23 -10 -15 0 -15 2 -2 10 20 13 33 13
25 0z m185 4 c0 -8 -19 -13 -24 -6 -3 5 1 9 9 9 8 0 15 -2 15 -3z m175 -3 c-9
-8 -36 -10 -30 -2 2 4 11 8 20 8 8 0 13 -3 10 -6z m-2055 -31 c0 -5 -5 -10
-11 -10 -5 0 -7 5 -4 10 3 6 8 10 11 10 2 0 4 -4 4 -10z m-210 -16 c0 -8 -19
-13 -24 -6 -3 5 1 9 9 9 8 0 15 -2 15 -3z m284 -2 c3 -5 -1 -9 -9 -9 -8 0 -12
4 -9 9 3 4 7 8 9 8 2 0 6 -4 9 -8z m506 2 c0 -8 -19 -13 -24 -6 -3 5 1 9 9 9
8 0 15 -2 15 -3z m1764 -2 c3 -5 -1 -9 -9 -9 -8 0 -12 4 -9 9 3 4 7 8 9 8 2 0
6 -4 9 -8z m296 2 c0 -8 -19 -13 -24 -6 -3 5 1 9 9 9 8 0 15 -2 15 -3z m244
-2 c3 -5 -1 -9 -9 -9 -8 0 -12 4 -9 9 3 4 7 8 9 8 2 0 6 -4 9 -8z"/>
</g>
</svg>
